<svg viewBox="0 0 879 400" xmlns="http://www.w3.org/2000/svg"><g><g><g><g><g><line x1="51.53200149536133" y1="377.8999996185303" x2="46.53200149536133" y2="377.8999996185303" style="visibility: inherit;" fill="rgb(0, 0, 0)" stroke="rgb(204, 204, 204)" stroke-width="1px"></line><line x1="51.53200149536133" y1="346.4083329836527" x2="46.53200149536133" y2="346.4083329836527" style="visibility: inherit;" fill="rgb(0, 0, 0)" stroke="rgb(204, 204, 204)" stroke-width="1px"></line><line x1="51.53200149536133" y1="314.91666634877527" x2="46.53200149536133" y2="314.91666634877527" style="visibility: inherit;" fill="rgb(0, 0, 0)" stroke="rgb(204, 204, 204)" stroke-width="1px"></line><line x1="51.53200149536133" y1="283.4249997138977" x2="46.53200149536133" y2="283.4249997138977" style="visibility: inherit;" fill="rgb(0, 0, 0)" stroke="rgb(204, 204, 204)" stroke-width="1px"></line><line x1="51.53200149536133" y1="251.9333330790202" x2="46.53200149536133" y2="251.9333330790202" style="visibility: inherit;" fill="rgb(0, 0, 0)" stroke="rgb(204, 204, 204)" stroke-width="1px"></line><line x1="51.53200149536133" y1="220.44166644414267" x2="46.53200149536133" y2="220.44166644414267" style="visibility: inherit;" fill="rgb(0, 0, 0)" stroke="rgb(204, 204, 204)" stroke-width="1px"></line><line x1="51.53200149536133" y1="188.94999980926517" x2="46.53200149536133" y2="188.94999980926517" style="visibility: inherit;" fill="rgb(0, 0, 0)" stroke="rgb(204, 204, 204)" stroke-width="1px"></line><line x1="51.53200149536133" y1="157.45833317438763" x2="46.53200149536133" y2="157.45833317438763" style="visibility: inherit;" fill="rgb(0, 0, 0)" stroke="rgb(204, 204, 204)" stroke-width="1px"></line><line x1="51.53200149536133" y1="125.96666653951014" x2="46.53200149536133" y2="125.96666653951014" style="visibility: inherit;" fill="rgb(0, 0, 0)" stroke="rgb(204, 204, 204)" stroke-width="1px"></line><line x1="51.53200149536133" y1="94.47499990463261" x2="46.53200149536133" y2="94.47499990463261" style="visibility: inherit;" fill="rgb(0, 0, 0)" stroke="rgb(204, 204, 204)" stroke-width="1px"></line><line x1="51.53200149536133" y1="62.98333326975507" x2="46.53200149536133" y2="62.98333326975507" style="visibility: inherit;" fill="rgb(0, 0, 0)" stroke="rgb(204, 204, 204)" stroke-width="1px"></line><line x1="51.53200149536133" y1="31.491666634877536" x2="46.53200149536133" y2="31.491666634877536" style="visibility: inherit;" fill="rgb(0, 0, 0)" stroke="rgb(204, 204, 204)" stroke-width="1px"></line><line x1="51.53200149536133" y1="0" x2="46.53200149536133" y2="0" style="visibility: inherit;" fill="rgb(0, 0, 0)" stroke="rgb(204, 204, 204)" stroke-width="1px"></line></g><g transform="translate(41.53200149536133, 0)"><text style="text-anchor: end; visibility: hidden; font-family: Roboto, sans-serif; font-size: 12px; font-weight: 200;" x="0" y="377.8999996185303" dx="0em" dy="0.3em" fill="rgb(50, 49, 63)" stroke="none" stroke-width="1px">-0.2</text><text style="text-anchor: end; visibility: inherit; font-family: Roboto, sans-serif; font-size: 12px; font-weight: 200;" x="0" y="346.4083329836527" dx="0em" dy="0.3em" fill="rgb(50, 49, 63)" stroke="none" stroke-width="1px">0</text><text style="text-anchor: end; visibility: inherit; font-family: Roboto, sans-serif; font-size: 12px; font-weight: 200;" x="0" y="314.91666634877527" dx="0em" dy="0.3em" fill="rgb(50, 49, 63)" stroke="none" stroke-width="1px">0.2</text><text style="text-anchor: end; visibility: inherit; font-family: Roboto, sans-serif; font-size: 12px; font-weight: 200;" x="0" y="283.4249997138977" dx="0em" dy="0.3em" fill="rgb(50, 49, 63)" stroke="none" stroke-width="1px">0.4</text><text style="text-anchor: end; visibility: inherit; font-family: Roboto, sans-serif; font-size: 12px; font-weight: 200;" x="0" y="251.9333330790202" dx="0em" dy="0.3em" fill="rgb(50, 49, 63)" stroke="none" stroke-width="1px">0.6</text><text style="text-anchor: end; visibility: inherit; font-family: Roboto, sans-serif; font-size: 12px; font-weight: 200;" x="0" y="220.44166644414267" dx="0em" dy="0.3em" fill="rgb(50, 49, 63)" stroke="none" stroke-width="1px">0.8</text><text style="text-anchor: end; visibility: inherit; font-family: Roboto, sans-serif; font-size: 12px; font-weight: 200;" x="0" y="188.94999980926517" dx="0em" dy="0.3em" fill="rgb(50, 49, 63)" stroke="none" stroke-width="1px">1</text><text style="text-anchor: end; visibility: inherit; font-family: Roboto, sans-serif; font-size: 12px; font-weight: 200;" x="0" y="157.45833317438763" dx="0em" dy="0.3em" fill="rgb(50, 49, 63)" stroke="none" stroke-width="1px">1.2</text><text style="text-anchor: end; visibility: inherit; font-family: Roboto, sans-serif; font-size: 12px; font-weight: 200;" x="0" y="125.96666653951014" dx="0em" dy="0.3em" fill="rgb(50, 49, 63)" stroke="none" stroke-width="1px">1.4</text><text style="text-anchor: end; visibility: inherit; font-family: Roboto, sans-serif; font-size: 12px; font-weight: 200;" x="0" y="94.47499990463261" dx="0em" dy="0.3em" fill="rgb(50, 49, 63)" stroke="none" stroke-width="1px">1.6</text><text style="text-anchor: end; visibility: inherit; font-family: Roboto, sans-serif; font-size: 12px; font-weight: 200;" x="0" y="62.98333326975507" dx="0em" dy="0.3em" fill="rgb(50, 49, 63)" stroke="none" stroke-width="1px">1.8</text><text style="text-anchor: end; visibility: inherit; font-family: Roboto, sans-serif; font-size: 12px; font-weight: 200;" x="0" y="31.491666634877536" dx="0em" dy="0.3em" fill="rgb(50, 49, 63)" stroke="none" stroke-width="1px">2</text><text style="text-anchor: end; visibility: hidden; font-family: Roboto, sans-serif; font-size: 12px; font-weight: 200;" x="0" y="0" dx="0em" dy="0.3em" fill="rgb(50, 49, 63)" stroke="none" stroke-width="1px">2.2</text></g><line x1="51.53200149536133" y1="0" x2="51.53200149536133" y2="377.8999996185303" fill="rgb(0, 0, 0)" stroke="rgb(204, 204, 204)" stroke-width="1px"></line></g></g><g transform="translate(51, 0)" clip-path="url(#clip_0)"><clipPath id="clip_0"><rect width="827" height="377"></rect></clipPath><g><g><g><line x1="0" y1="0" x2="0" y2="377.8999996185303" fill="rgb(0, 0, 0)" stroke="rgb(60, 60, 60)" stroke-width="1px" opacity="0.25"></line><line x1="91.94088872273763" y1="0" x2="91.94088872273763" y2="377.8999996185303" fill="rgb(0, 0, 0)" stroke="rgb(60, 60, 60)" stroke-width="1px" opacity="0.25"></line><line x1="183.88177744547525" y1="0" x2="183.88177744547525" y2="377.8999996185303" fill="rgb(0, 0, 0)" stroke="rgb(60, 60, 60)" stroke-width="1px" opacity="0.25"></line><line x1="275.8226661682129" y1="0" x2="275.8226661682129" y2="377.8999996185303" fill="rgb(0, 0, 0)" stroke="rgb(60, 60, 60)" stroke-width="1px" opacity="0.25"></line><line x1="367.7635548909505" y1="0" x2="367.7635548909505" y2="377.8999996185303" fill="rgb(0, 0, 0)" stroke="rgb(60, 60, 60)" stroke-width="1px" opacity="0.25"></line><line x1="459.70444361368817" y1="0" x2="459.70444361368817" y2="377.8999996185303" fill="rgb(0, 0, 0)" stroke="rgb(60, 60, 60)" stroke-width="1px" opacity="0.25"></line><line x1="551.6453323364258" y1="0" x2="551.6453323364258" y2="377.8999996185303" fill="rgb(0, 0, 0)" stroke="rgb(60, 60, 60)" stroke-width="1px" opacity="0.25"></line><line x1="643.5862210591634" y1="0" x2="643.5862210591634" y2="377.8999996185303" fill="rgb(0, 0, 0)" stroke="rgb(60, 60, 60)" stroke-width="1px" opacity="0.25"></line><line x1="735.527109781901" y1="0" x2="735.527109781901" y2="377.8999996185303" fill="rgb(0, 0, 0)" stroke="rgb(60, 60, 60)" stroke-width="1px" opacity="0.25"></line><line x1="827.4679985046387" y1="0" x2="827.4679985046387" y2="377.8999996185303" fill="rgb(0, 0, 0)" stroke="rgb(60, 60, 60)" stroke-width="1px" opacity="0.25"></line></g><g><line x1="0" y1="377.8999996185303" x2="827.4679985046387" y2="377.8999996185303" fill="rgb(0, 0, 0)" stroke="rgb(60, 60, 60)" stroke-width="1px" opacity="0.25"></line><line x1="0" y1="346.4083329836527" x2="827.4679985046387" y2="346.4083329836527" fill="rgb(0, 0, 0)" stroke="rgb(60, 60, 60)" stroke-width="1px" opacity="0.25"></line><line x1="0" y1="314.91666634877527" x2="827.4679985046387" y2="314.91666634877527" fill="rgb(0, 0, 0)" stroke="rgb(60, 60, 60)" stroke-width="1px" opacity="0.25"></line><line x1="0" y1="283.4249997138977" x2="827.4679985046387" y2="283.4249997138977" fill="rgb(0, 0, 0)" stroke="rgb(60, 60, 60)" stroke-width="1px" opacity="0.25"></line><line x1="0" y1="251.9333330790202" x2="827.4679985046387" y2="251.9333330790202" fill="rgb(0, 0, 0)" stroke="rgb(60, 60, 60)" stroke-width="1px" opacity="0.25"></line><line x1="0" y1="220.44166644414267" x2="827.4679985046387" y2="220.44166644414267" fill="rgb(0, 0, 0)" stroke="rgb(60, 60, 60)" stroke-width="1px" opacity="0.25"></line><line x1="0" y1="188.94999980926517" x2="827.4679985046387" y2="188.94999980926517" fill="rgb(0, 0, 0)" stroke="rgb(60, 60, 60)" stroke-width="1px" opacity="0.25"></line><line x1="0" y1="157.45833317438763" x2="827.4679985046387" y2="157.45833317438763" fill="rgb(0, 0, 0)" stroke="rgb(60, 60, 60)" stroke-width="1px" opacity="0.25"></line><line x1="0" y1="125.96666653951014" x2="827.4679985046387" y2="125.96666653951014" fill="rgb(0, 0, 0)" stroke="rgb(60, 60, 60)" stroke-width="1px" opacity="0.25"></line><line x1="0" y1="94.47499990463261" x2="827.4679985046387" y2="94.47499990463261" fill="rgb(0, 0, 0)" stroke="rgb(60, 60, 60)" stroke-width="1px" opacity="0.25"></line><line x1="0" y1="62.98333326975507" x2="827.4679985046387" y2="62.98333326975507" fill="rgb(0, 0, 0)" stroke="rgb(60, 60, 60)" stroke-width="1px" opacity="0.25"></line><line x1="0" y1="31.491666634877536" x2="827.4679985046387" y2="31.491666634877536" fill="rgb(0, 0, 0)" stroke="rgb(60, 60, 60)" stroke-width="1px" opacity="0.25"></line><line x1="0" y1="0" x2="827.4679985046387" y2="0" fill="rgb(0, 0, 0)" stroke="rgb(60, 60, 60)" stroke-width="1px" opacity="0.25"></line></g></g></g><g><g><line x1="0" y1="346.4083329836527" x2="827.4679985046387" y2="346.4083329836527" fill="rgb(0, 0, 0)" stroke="rgb(153, 153, 153)" stroke-width="1.5px"></line></g></g><g><g><line x1="91.94088872273763" y1="0" x2="91.94088872273763" y2="377.8999996185303" fill="rgb(0, 0, 0)" stroke="rgb(153, 153, 153)" stroke-width="1.5px"></line></g></g><g><g><g><g><g><path style="fill: none;" stroke="rgb(0, 119, 187)" stroke-width="2px" d="M91.94088872273763,243.43025708162824L93.77970649719238,154.3828908886019L95.61852427164713,42.8348758977843L97.45734204610189,105.39524869366457L99.29615982055664,139.65901578536597L101.13497759501139,156.24177407462403L102.97379536946615,167.32038565758634L104.81261314392091,175.60631757862603L106.65143091837565,192.24459010548856L108.49024869283042,177.43009312328056L110.32906646728516,182.25980465464625L112.16788424173991,194.37817896035222L114.00670201619467,190.92887486572954L115.84551979064942,194.32651327704767L117.68433756510417,180.88955994101855L119.52315533955891,178.82411543933668L121.36197311401368,191.22526806168293L123.20079088846842,192.37600579995032L125.03960866292317,198.3092020078961L126.87842643737793,198.26649956510587L128.71724421183268,211.1273368544103L130.55606198628743,192.24778604645442L132.39487976074219,197.58973361844923L134.23369753519694,188.7788359302689L136.0725153096517,196.43564531104136L137.91133308410645,193.93151362718348L139.7501508585612,202.3370747978119L141.58896863301595,212.51293805472508L143.4277864074707,199.30640471442916L145.26660418192546,213.02675568802138L147.1054219563802,207.56564614524004L148.94423973083497,209.74161264633034L150.78305750528972,205.54758778968758L152.62187527974447,211.39508454660222L154.46069305419923,208.45486407430906L156.29951082865398,204.46809108369348L158.13832860310873,205.96342267849943L159.97714637756349,213.75459115640504L161.81596415201824,209.4495445661521L163.654781926473,203.9683509151423L165.49359970092775,210.3557383532195L167.3324174753825,215.6211793423172L169.17123524983725,209.29177667154391L171.01005302429198,207.13778198132823L172.84887079874676,205.6900981903607L174.68768857320148,213.91270771570169L176.52650634765627,215.1341288908564L178.365324122111,219.07543628849257L180.20414189656574,215.3030175348803L182.0429596710205,209.82116149058L183.88177744547525,216.66312054351357L185.72059521993,212.74425474914366L187.55941299438476,218.94736970230957L189.3982307688395,216.00283671548573L191.23704854329426,219.50804963961096L193.07586631774902,213.36434420452863L194.91468409220377,219.6505464210305L196.75350186665852,218.6071915742559L198.59231964111328,217.97089345132414L200.43113741556803,217.66814537904483L202.26995519002278,219.3490401658478L204.10877296447754,220.4659713043752L205.9475907389323,220.37311734014142L207.78640851338704,219.25483693829312L209.62522628784183,218.7091755363672L211.46404406229652,220.38713138090074L213.3028618367513,223.14280285179998L215.14167961120606,222.27321165799503L216.98049738566084,224.80520262982142L218.81931516011554,219.87945642985986L220.65813293457032,216.60606420210215L222.49695070902507,223.8537620474972L224.33576848347982,223.6228711102264L226.17458625793455,225.07095980601306L228.01340403238933,220.94612608704054L229.85222180684408,222.0202382970628L231.69103958129884,219.70763034684057L233.52985735575356,222.2312915049137L235.36867513020835,220.38071166526848L237.2074929046631,223.12986091457898L239.04631067911782,226.0962052407623L240.88512845357258,227.35605477204916L242.72394622802736,225.2185349480239L244.5627640024821,225.93016226371483L246.40158177693684,221.92157893940706L248.2403995513916,228.89332202169618L250.07921732584634,223.56473086480028L251.91803510030113,225.7316428740785L253.75685287475585,225.64798100733765L255.5956706492106,223.06399106239533L257.43448842366536,228.19475195002602L259.2733061981201,228.36635495767797L261.11212397257486,229.26369973234677L262.9509417470296,224.67539904647236L264.78975952148437,228.11520873652273L266.6285772959391,228.35716254730747L268.4673950703939,228.5824389163482L270.30621284484863,227.3509158227405L272.1450306193034,229.99916968105234L273.98384839375814,226.37632072883184L275.8226661682129,224.45875181733382L277.66148394266764,224.58022121710533L279.5003017171224,225.64119590140777L281.33911949157715,223.86823382193012L283.1779372660319,226.13735729830537L285.01675504048666,225.59948655521342L286.8555728149414,225.24474395779194L288.69439058939616,225.31137873979563L290.5332083638509,224.04155793264397L292.37202613830567,226.80817863483287L294.2108439127604,227.1336236802858L296.0496616872151,225.59488826876768L297.88847946166993,226.76516083699482L299.7272972361247,228.09800784554523L301.56611501057944,227.76550483024906L303.40493278503413,226.83605584090665L305.24375055948894,228.11945151023474L307.0825683339437,229.96386668820983L308.92138610839845,230.957833104545L310.76020388285315,228.11214139203105L312.59902165730796,229.91745587169467L314.4378394317627,229.35291165816676L316.27665720621746,232.54159716248606L318.11547498067216,228.75918206456225L319.95429275512697,226.18875017644567L321.7931105295817,224.83044505512964L323.6319283040365,227.23285379247184L325.4707460784912,224.41328081988354L327.309563852946,227.20642848927676L329.14838162740074,229.62446148195465L330.9871994018555,230.95908268945254L332.8260171763102,229.2940420871017L334.664834950765,224.81159303199175L336.50365272521975,228.0491852419159L338.3424704996745,230.7793199279908L340.1812882741292,227.56490601579955L342.02010604858395,226.90291430629932L343.85892382303877,232.27643474258144L345.6977415974935,227.17176019226966L347.5365593719482,225.88059776404347L349.37537714640297,224.6922216672062L351.2141949208578,226.9027940773631L353.05301269531253,227.32723054746282L354.8918304697672,225.41761847775524L356.730648244222,227.13627817714624L358.5694660186768,225.6174672612054L360.4082837931315,228.9229616402253L362.24710156758624,229.93045673822257L364.085919342041,228.97040983222442L365.9247371164958,225.7096043316223L367.7635548909505,227.60541528823356L369.60237266540526,227.5049417688266L371.44119043986,226.6881752837435L373.2800082143148,226.46932003314765L375.1188259887695,228.27470258015498L376.95764376322427,226.37213817167856L378.796461537679,230.46519983797162L380.63527931213383,228.21055129251454L382.47409708658853,227.85855292012803L384.3129148610433,230.41638538627478L386.15173263549804,225.66164856361527L387.99055040995285,226.89732762592206L389.82936818440754,226.5231397391189L391.6681859588623,230.83207515677088L393.50700373331705,228.9987524063699L395.3458215077718,231.0456784548044L397.18463928222656,229.82427701693834L399.0234570566813,232.14897384347168L400.86227483113606,231.11358101242018L402.7010926055908,228.1656828416307L404.53991038004557,228.30827992357254L406.3787281545003,224.0180774401101L408.2175459289551,227.85975119097648L410.05636370340983,228.82653134111442L411.8951814778646,230.8493012367023L413.73399925231934,227.21636259662742L415.5728170267741,228.94812503265396L417.41163480122884,232.64226074917153L419.25045257568365,229.09260440973938L421.0892703501383,230.0114687623651L422.92808812459305,230.29253711262504L424.76690589904786,228.4978819118154L426.6057236735026,231.25475888900002L428.44454144795736,224.85541241895874L430.2833592224121,227.41434247990588L432.12217699686687,230.0014414095673L433.9609947713217,227.45157023965535L435.7998125457763,229.24932085514195L437.6386303202311,230.40455838123077L439.4774480946858,230.2176549341065L441.31626586914064,229.4370758639153L443.1550836435954,232.04401160706132L444.99390141805014,230.95125853414578L446.8327191925049,229.88446513389084L448.67153696695965,225.611960473188L450.51035474141435,228.1378447022495L452.3491725158691,229.64523550502827L454.18799029032385,229.17804134452848L456.02680806477866,230.54038367698527L457.8656258392334,231.7558778173672L459.70444361368817,229.44723479170185L461.5432613881429,231.47839009199149L463.3820791625977,228.7230561952528L465.2208969370524,229.1542049369353L467.0597147115071,229.36208588295847L468.8985324859619,230.2298379736723L470.7373502604167,230.43016263461158L472.57616803487144,233.8121535615697L474.4149858093262,225.75194605196498L476.25380358378095,225.6911994459988L478.09262135823565,228.78184484671553L479.9314391326904,230.58339777275572L481.77025690714515,228.4427947308528L483.6090746815999,230.79635035432665L485.4478924560547,231.1791232690223L487.28671023050947,226.58883058721298L489.1255280049642,227.78835279284553L490.964345779419,227.72830135393212L492.8031635538737,228.81292271709106L494.6419813283284,230.59930459822058L496.4807991027832,230.8890807086536L498.31961687723793,231.3809770356683L500.1584346516927,230.56757922589856L501.9972524261475,226.88833678055965L503.83607020060225,227.27495738610216L505.674887975057,228.92307803258979L507.5137057495117,231.11060586155466L509.35252352396645,232.765679887695L511.1913412984212,230.76052853756823L513.030159072876,231.88256861372633L514.8689768473307,227.30353087267446L516.7077946217855,229.31933988935828L518.5466123962402,228.59654165319432L520.385430170695,227.9535691142094L522.2242479451497,230.6044139345979L524.0630657196044,228.09416453195175L525.9018834940592,230.7175464044856L527.740701268514,229.17309937678752L529.5795190429687,228.69830854538947L531.4183368174236,229.23763731349288L533.2571545918782,227.74296859868048L535.095972366333,233.7710560051465L536.9347901407878,229.9171957311937L538.7736079152425,230.3191596014314L540.6124256896973,229.7884562868264L542.4512434641521,229.51260192226712L544.2900612386068,230.37051898009994L546.1288790130616,231.0979253670651L547.9676967875163,231.5806859958062L549.806514561971,226.20077121406499L551.6453323364258,231.0342192664601L553.4841501108805,231.668548976818L555.3229678853353,231.41220526376483L557.1617856597901,228.71057135923812L559.0006034342448,227.83007426279198L560.8394212086996,229.93715332044195L562.6782389831543,229.00343896932543L564.517056757609,227.19581889412416L566.3558745320638,230.8299622142826L568.1946923065185,230.76494311930944L570.0335100809733,228.0998256410405L571.872327855428,227.7220655415304L573.7111456298828,230.88887486411681L575.5499634043376,227.71938379062283L577.3887811787923,231.56668301225247L579.227598953247,231.64095804835225L581.0664167277018,234.54784017273772L582.9052345021565,231.86600283917554L584.7440522766113,230.74696754514872L586.582870051066,230.99366643283685L588.4216878255208,230.22946059904982L590.2605055999757,227.59561054021387L592.0993233744302,231.40573541984895L593.938141148885,227.58603105419525L595.7769589233399,229.824871968671L597.6157766977946,228.69854621749536L599.4545944722494,230.623774038995L601.2934122467041,228.5670293867917L603.1322300211589,230.66981469791128L604.9710477956137,231.84283873916038L606.8098655700683,227.2800536655548L608.6486833445231,230.22742114942062L610.4875011189779,230.71956380986092L612.3263188934326,231.13770018424097L614.1651366678874,231.50017365006846L616.0039544423421,233.10966970012564L617.8427722167969,231.41319247122024L619.6815899912517,234.21076640032666L621.5204077657063,231.45758223723857L623.3592255401611,230.52461469385386L625.1980433146159,232.935800669329L627.0368610890706,229.63841532032848L628.8756788635254,229.11898526414828L630.7144966379801,229.51488223491657L632.5533144124349,229.7884648685075L634.3921321868897,231.48396375962406L636.2309499613443,231.41145632560662L638.0697677357991,232.5290809045089L639.9085855102539,232.20932326474264L641.7474032847086,230.75185868289552L643.5862210591634,229.29962936263607L645.4250388336181,232.15245545540554L647.263856608073,232.45711568942284L649.1026743825278,230.33736773895498L650.9414921569823,228.96535325276392L652.7803099314372,231.0452658295315L654.619127705892,230.13314242607623L656.4579454803467,227.77349726960432L658.2967632548015,226.9821033540766L660.1355810292562,229.11779633922384L661.974398803711,229.32913950800855L663.8132165781657,230.38178880383236L665.6520343526204,233.90102524284384L667.4908521270752,230.83272542534107L669.32966990153,229.1811364686991L671.1684876759847,231.91097913341125L673.0073054504395,226.4615599965969L674.8461232248942,225.35057102927394L676.684940999349,228.1982171314805L678.5237587738037,228.3841651387506L680.3625765482584,228.4735738447903L682.2013943227132,230.43598226974524L684.0402120971679,227.3547953015433L685.8790298716227,228.97849305361555L687.7178476460775,232.3312338552165L689.5566654205322,230.82542289615216L691.395483194987,230.9958920212882L693.2343009694417,230.4687378440735L695.0731187438964,232.89335695429958L696.9119365183512,229.89917548064065L698.7507542928059,231.9172766629068L700.5895720672607,233.92634057013962L702.4283898417156,230.4206351898345L704.2672076161703,230.56257721923174L706.1060253906251,229.7989375676641L707.9448431650798,230.27057455459214L709.7836609395345,229.883875526498L711.6224787139893,232.01725013111619L713.461296488444,231.09718535456628L715.3001142628988,230.9026185409628L717.1389320373536,229.1787482399641L718.9777498118083,228.7732994890126L720.816567586263,231.0201516681127L722.6553853607178,231.0504899028778L724.4942031351725,227.68870454787248L726.3330209096273,230.27932958923898L728.171838684082,229.3992607339415L730.0106564585368,232.045585639377L731.8494742329916,230.4082781320195L733.6882920074463,226.68006008978745L735.527109781901,230.65292279786252L737.3659275563558,231.50576027829263L739.2047453308105,230.18912119504066L741.0435631052653,232.37715502167148L742.88238087972,231.209219995167L744.7211986541748,231.54601196564994L746.5600164286296,232.77678510772222L748.3988342030843,232.17561362531174L750.237651977539,232.95622540345093L752.0764697519938,232.02221153591856L753.9152875264485,231.09958002344487L755.7541053009033,230.39235509958593L757.592923075358,230.89163849366062L759.4317408498129,229.33647925150595L761.2705586242677,229.91799644277L763.1093763987224,227.75802251125208L764.9481941731771,228.98329420056427L766.7870119476319,230.2936243576527L768.6258297220866,231.11293409632435L770.4646474965414,229.71294777327495L772.3034652709961,231.6451454692387L774.1422830454509,231.9527926866373L775.9811008199057,229.1795244001067L777.8199185943603,230.7572076396779L779.6587363688151,231.81189903426724" fill="none"></path></g><g><path style="fill: none;" stroke="rgb(204, 51, 17)" stroke-width="2px" d="M91.94088872273763,246.51252269398012L93.77970649719238,280.7226385066026L95.61852427164713,299.6123179754242L97.45734204610189,277.8090147944567L99.29615982055664,270.87501373899363L101.13497759501139,276.81853845573306L102.97379536946615,255.89987849720367L104.81261314392091,241.62354743785238L106.65143091837565,255.17184549156113L108.49024869283042,268.7729885783551L110.32906646728516,262.9652655323191L112.16788424173991,259.4992755460116L114.00670201619467,264.61450049809247L115.84551979064942,252.8955569892514L117.68433756510417,259.0358115276008L119.52315533955891,263.7766794019333L121.36197311401368,256.8490759476264L123.20079088846842,259.6774165111478L125.03960866292317,249.3102570425014L126.87842643737793,254.91991390492927L128.71724421183268,250.60293151870727L130.55606198628743,257.0212616770689L132.39487976074219,252.52766131311722L134.23369753519694,258.4597573178774L136.0725153096517,256.20466659455997L137.91133308410645,254.89075931667625L139.7501508585612,252.17594708886756L141.58896863301595,253.58332717770327L143.4277864074707,251.49800707626423L145.26660418192546,251.08491669166935L147.1054219563802,242.79095019176413L148.94423973083497,251.51858457404887L150.78305750528972,256.7036588116595L152.62187527974447,244.57307784231384L154.46069305419923,252.51212835388537L156.29951082865398,243.5972095714438L158.13832860310873,245.88539180087253L159.97714637756349,248.75130915021654L161.81596415201824,251.3133672049905L163.654781926473,252.61675282944205L165.49359970092775,252.49571276609527L167.3324174753825,244.70024460606388L169.17123524983725,250.99215884759423L171.01005302429198,248.6417200093502L172.84887079874676,254.1140079818785L174.68768857320148,245.06090270779765L176.52650634765627,244.1172853382456L178.365324122111,238.8392271488764L180.20414189656574,243.69613425489152L182.0429596710205,250.5428896405139L183.88177744547525,253.27166384289686L185.72059521993,251.1900214061822L187.55941299438476,250.5402205297303L189.3982307688395,246.7472626368049L191.23704854329426,239.35580114720608L193.07586631774902,244.17084682102262L194.91468409220377,249.6806891799475L196.75350186665852,246.50486436716886L198.59231964111328,245.30664569137113L200.43113741556803,241.70577176309936L202.26995519002278,243.83752713774467L204.10877296447754,236.86396938631287L205.9475907389323,246.05005359750103L207.78640851338704,244.5420714172716L209.62522628784183,240.53297056927522L211.46404406229652,245.51284568994922L213.3028618367513,249.62602869660674L215.14167961120606,243.26702660325063L216.98049738566084,246.25008164677536L218.81931516011554,242.2922840371906L220.65813293457032,247.1497743027762L222.49695070902507,243.81057141701388L224.33576848347982,243.9175289560285L226.17458625793455,243.72664055312276L228.01340403238933,243.20260553486992L229.85222180684408,244.25087345942492L231.69103958129884,245.49992937731943L233.52985735575356,248.9068685477857L235.36867513020835,244.41869548836797L237.2074929046631,241.16480398387725L239.04631067911782,243.75499730289545L240.88512845357258,242.19616319075533L242.72394622802736,241.3055301746609L244.5627640024821,245.23291660450556L246.40158177693684,243.097444596884L248.2403995513916,247.28222609131663L250.07921732584634,242.5465041423628L251.91803510030113,235.2727579968209L253.75685287475585,237.65025241548085L255.5956706492106,234.7767818510585L257.43448842366536,239.44171976484125L259.2733061981201,236.88821406229974L261.11212397257486,235.6444412694659L262.9509417470296,237.1955064568385L264.78975952148437,237.07282756496517L266.6285772959391,244.95969995479538L268.4673950703939,241.5874867922869L270.30621284484863,238.10851067581103L272.1450306193034,238.8330770975354L273.98384839375814,237.74268600441277L275.8226661682129,239.73161758673484L277.66148394266764,240.92349033155952L279.5003017171224,240.30793794511703L281.33911949157715,243.40940604587712L283.1779372660319,243.23486190431035L285.01675504048666,239.20688199344846L286.8555728149414,239.0828845526019L288.69439058939616,238.70471980937123L290.5332083638509,241.1987865672077L292.37202613830567,240.0404052017332L294.2108439127604,242.49649875021746L296.0496616872151,238.66366065536744L297.88847946166993,235.02353154764384L299.7272972361247,238.2052654418439L301.56611501057944,238.0629234066321L303.40493278503413,241.80081424918262L305.24375055948894,238.06678679261898L307.0825683339437,237.5755247621842L308.92138610839845,240.5009515475071L310.76020388285315,241.3216473192762L312.59902165730796,239.97117910549562L314.4378394317627,240.63437437012428L316.27665720621746,242.2493386490453L318.11547498067216,240.55217285292085L319.95429275512697,237.3426960858383L321.7931105295817,240.88357540155687L323.6319283040365,240.7518497139817L325.4707460784912,237.51724531467997L327.309563852946,242.7082487384306L329.14838162740074,240.27761783032938L330.9871994018555,241.28199682602744L332.8260171763102,238.57137267416013L334.664834950765,238.5291079634159L336.50365272521975,240.62264816609164L338.3424704996745,243.78589768678253L340.1812882741292,240.1920462390237L342.02010604858395,236.87998297964265L343.85892382303877,239.319445863277L345.6977415974935,241.42134006778568L347.5365593719482,239.45956198201932L349.37537714640297,235.73879771445675L351.2141949208578,241.2304875378824L353.05301269531253,243.30743050561267L354.8918304697672,241.83291674965506L356.730648244222,242.58707232994686L358.5694660186768,240.99835063246783L360.4082837931315,241.47519703147032L362.24710156758624,240.15159419597498L364.085919342041,241.28754315530537L365.9247371164958,237.5623958177382L367.7635548909505,239.56363875003257L369.60237266540526,241.94066606450636L371.44119043986,240.15043399443786L373.2800082143148,242.61260739903844L375.1188259887695,240.4744802315611L376.95764376322427,240.04999575371542L378.796461537679,242.86971239421575L380.63527931213383,241.44893249970303L382.47409708658853,240.16941384850116L384.3129148610433,240.2866485529723L386.15173263549804,239.90654293698302L387.99055040995285,238.86110281320376L389.82936818440754,236.302649487536L391.6681859588623,240.60155015211913L393.50700373331705,239.1989748533262L395.3458215077718,245.14907680157197L397.18463928222656,241.4835614797585L399.0234570566813,241.17682360777778L400.86227483113606,241.24684164464034L402.7010926055908,240.34297475795682L404.53991038004557,241.1703262103894L406.3787281545003,236.18428850651722L408.2175459289551,240.49635302730326L410.05636370340983,241.1896088668165L411.8951814778646,237.91097624514444L413.73399925231934,234.71130367085397L415.5728170267741,241.93010450390514L417.41163480122884,238.3381516986753L419.25045257568365,240.7262909116218L421.0892703501383,237.12243458713664L422.92808812459305,239.4421977913532L424.76690589904786,235.3980633511308L426.6057236735026,237.40726087050774L428.44454144795736,239.9084289435972L430.2833592224121,239.94174971764843L432.12217699686687,242.34862238482685L433.9609947713217,239.89249981268134L435.7998125457763,242.41083232790456L437.6386303202311,242.22152531612178L439.4774480946858,241.90614673882112L441.31626586914064,243.09049338064187L443.1550836435954,244.142505995027L444.99390141805014,241.7994105980494L446.8327191925049,241.36329555234732L448.67153696695965,239.9137336859022L450.51035474141435,239.01608026340978L452.3491725158691,242.29063572132182L454.18799029032385,242.6190143857517L456.02680806477866,238.91913083689414L457.8656258392334,243.38733503812088L459.70444361368817,236.77559118016592L461.5432613881429,235.6308391610592L463.3820791625977,238.68537485187642L465.2208969370524,241.8475750936314L467.0597147115071,244.9440031726933L468.8985324859619,242.1633012868654L470.7373502604167,242.3052203324742L472.57616803487144,242.09845623761356L474.4149858093262,240.22514906111536L476.25380358378095,238.85563512725744L478.09262135823565,241.3651578755977L479.9314391326904,238.44450357677613L481.77025690714515,241.32480910280208L483.6090746815999,242.10868510769967L485.4478924560547,240.46534711936016L487.28671023050947,239.8819492613679L489.1255280049642,233.85104959124695L490.964345779419,242.07463990778288L492.8031635538737,239.29585782942098L494.6419813283284,237.54843109610042L496.4807991027832,238.03198894085241L498.31961687723793,240.51310416424704L500.1584346516927,239.65544109685408L501.9972524261475,238.34926332945764L503.83607020060225,243.16794563733626L505.674887975057,238.70215110608265L507.5137057495117,238.85920605848887L509.35252352396645,241.95792451402963L511.1913412984212,241.62843731097706L513.030159072876,240.0961611766838L514.8689768473307,240.78351481394589L516.7077946217855,243.0430638525373L518.5466123962402,240.6884294337247L520.385430170695,242.77057520124646L522.2242479451497,237.53599647809452L524.0630657196044,240.61120313886227L525.9018834940592,240.18633600370643L527.740701268514,240.33429807572972L529.5795190429687,236.33444685056986L531.4183368174236,239.30866873835996L533.2571545918782,238.30577210149931L535.095972366333,242.43265134566724L536.9347901407878,239.03282443621376L538.7736079152425,240.08436030488724L540.6124256896973,240.17764633665155L542.4512434641521,238.20068461257935L544.2900612386068,236.48893853623628L546.1288790130616,236.43579929186166L547.9676967875163,237.95231131572586L549.806514561971,241.72978678848037L551.6453323364258,242.59270920657846L553.4841501108805,241.37356613563264L555.3229678853353,238.16226273510904L557.1617856597901,238.50778279585242L559.0006034342448,234.3538717612553L560.8394212086996,238.45722216011944L562.6782389831543,239.78136532226094L564.517056757609,236.16431356227454L566.3558745320638,238.7239793455527L568.1946923065185,241.9479275657063L570.0335100809733,241.5893923542014L571.872327855428,244.03786129012207L573.7111456298828,242.04260230198636L575.5499634043376,241.83941456470697L577.3887811787923,241.72975772969153L579.227598953247,239.513333349826L581.0664167277018,242.15321533853714L582.9052345021565,242.22757206364614L584.7440522766113,239.45673774950833L586.582870051066,241.2965142873207L588.4216878255208,241.3471565963033L590.2605055999757,242.75495962147875L592.0993233744302,237.2605537366896L593.938141148885,235.738436907128L595.7769589233399,242.02785286060768L597.6157766977946,238.3494778979027L599.4545944722494,242.01942208995285L601.2934122467041,241.928771688013L603.1322300211589,239.90183197021233L604.9710477956137,240.38877212732663L606.8098655700683,239.30102144551168L608.6486833445231,241.50241008576515L610.4875011189779,241.1294734089312L612.3263188934326,242.00727332496453L614.1651366678874,239.4347675800714L616.0039544423421,243.01539346125563L617.8427722167969,241.11444951917062L619.6815899912517,239.91237188488756L621.5204077657063,240.71492749761032L623.3592255401611,238.55742616060607L625.1980433146159,242.86718676149988L627.0368610890706,240.7581671824362L628.8756788635254,240.0647657214427L630.7144966379801,241.8861364368115L632.5533144124349,241.2314968893408L634.3921321868897,242.018979618484L636.2309499613443,237.26099072008665L638.0697677357991,240.84039260747207L639.9085855102539,242.3074779749251L641.7474032847086,241.39311495352638L643.5862210591634,239.841920123853L645.4250388336181,242.70957139417715L647.263856608073,242.30723422130038L649.1026743825278,240.23999380530753L650.9414921569823,239.60358413191895L652.7803099314372,241.79133119671053L654.619127705892,243.693526659473L656.4579454803467,238.42241952068682L658.2967632548015,243.1581895568292L660.1355810292562,241.23270483579785L661.974398803711,240.824875844967L663.8132165781657,240.10798959059568L665.6520343526204,240.35610176288282L667.4908521270752,242.6440419169104L669.32966990153,244.55394163727712L671.1684876759847,240.61490987592083L673.0073054504395,243.25313939610967L674.8461232248942,241.67184049128713L676.684940999349,241.54657689510785L678.5237587738037,242.28031969253465L680.3625765482584,241.97719418411052L682.2013943227132,240.27714433231475L684.0402120971679,238.6488723761528L685.8790298716227,237.3289927824895L687.7178476460775,239.71235037493165L689.5566654205322,238.1166964852461L691.395483194987,240.49839619891577L693.2343009694417,239.94696354146674L695.0731187438964,239.79575415662907L696.9119365183512,242.3506261262891L698.7507542928059,240.14528944773116L700.5895720672607,237.35178863995364L702.4283898417156,238.27146359728593L704.2672076161703,238.90515758241378L706.1060253906251,238.80637811604782L707.9448431650798,236.68786239055387L709.7836609395345,243.97811666000425L711.6224787139893,243.4105638001142L713.461296488444,241.29507714493943L715.3001142628988,242.58469695286684L717.1389320373536,238.27933263388152L718.9777498118083,239.28016732350477L720.816567586263,236.0325390402951L722.6553853607178,239.0070441295935L724.4942031351725,237.9311144705893L726.3330209096273,240.4042013831419L728.171838684082,237.3604174519897L730.0106564585368,236.49149357709936L731.8494742329916,239.40692944128602L733.6882920074463,235.22144622249704L735.527109781901,238.04215554420878L737.3659275563558,240.46547204523145L739.2047453308105,239.5250064486447L741.0435631052653,244.20903700564068L742.88238087972,241.29859875569377L744.7211986541748,238.0456658290169L746.5600164286296,237.8831083443046L748.3988342030843,241.82864855734763L750.237651977539,239.16371630532618L752.0764697519938,239.713114802795L753.9152875264485,239.2363118198154L755.7541053009033,239.14411948083972L757.592923075358,241.04762985092628L759.4317408498129,237.75042965135705L761.2705586242677,236.6163365818875L763.1093763987224,238.30502495209578L764.9481941731771,238.4008221493666L766.7870119476319,241.10120245821264L768.6258297220866,240.06266697661502L770.4646474965414,240.65689055262112L772.3034652709961,241.7851084115566L774.1422830454509,244.11702705530794L775.9811008199057,237.7018667603926L777.8199185943603,240.43141161244486L779.6587363688151,240.60579988470323" fill="none"></path></g><g><path style="fill: none;" stroke="rgb(51, 187, 238)" stroke-width="2px" d="M91.94088872273763,230.94178619467257L93.77970649719238,250.86584744672658L95.61852427164713,266.07493504711186L97.45734204610189,275.95693145549734L99.29615982055664,273.86353501809305L101.13497759501139,261.3622951906703L102.97379536946615,271.4802777132222L104.81261314392091,276.799181451632L106.65143091837565,265.8311581297181L108.49024869283042,255.17962073386929L110.32906646728516,257.0479115063995L112.16788424173991,247.89176240666896L114.00670201619467,247.97649665835488L115.84551979064942,254.77840775600376L117.68433756510417,257.1891870205729L119.52315533955891,249.1022908208706L121.36197311401368,251.69241038664578L123.20079088846842,248.4197346153056L125.03960866292317,255.97900065307203L126.87842643737793,254.6647628027446L128.71724421183268,252.44032724889544L130.55606198628743,252.29240418739494L132.39487976074219,252.5598111857612L134.23369753519694,247.63473684880137L136.0725153096517,248.02129607346353L137.91133308410645,249.92958934875716L139.7501508585612,247.95946910560497L141.58896863301595,247.48656684669388L143.4277864074707,250.97791586636473L145.26660418192546,245.27274839761077L147.1054219563802,248.72127575691394L148.94423973083497,247.6740783265676L150.78305750528972,239.6659896551429L152.62187527974447,246.5045556979477L154.46069305419923,249.0316794418601L156.29951082865398,251.01775101443485L158.13832860310873,252.88941859313076L159.97714637756349,249.60127646230583L161.81596415201824,247.58975972360545L163.654781926473,248.26101035434564L165.49359970092775,246.39387381609228L167.3324174753825,248.43138924133356L169.17123524983725,244.28801406199258L171.01005302429198,247.81602690210687L172.84887079874676,239.48541208721127L174.68768857320148,246.46633694796338L176.52650634765627,249.93517757701645L178.365324122111,250.7067594982159L180.20414189656574,245.4082109735779L182.0429596710205,243.79011893420068L183.88177744547525,241.4892744612295L185.72059521993,244.9678436684516L187.55941299438476,242.00742570587855L189.3982307688395,245.35273082444715L191.23704854329426,245.0788737531918L193.07586631774902,240.79004129859396L194.91468409220377,237.62470064760484L196.75350186665852,242.82686207801217L198.59231964111328,242.25098085785163L200.43113741556803,248.49434404482997L202.26995519002278,244.31925556829273L204.10877296447754,242.7955214923692L205.9475907389323,241.86814023014858L207.78640851338704,237.5786519815412L209.62522628784183,242.61312606741913L211.46404406229652,242.46069623662558L213.3028618367513,237.87686568975448L215.14167961120606,240.4361768396221L216.98049738566084,239.96989460332526L218.81931516011554,244.99841246144135L220.65813293457032,240.35627001192066L222.49695070902507,239.75514244911713L224.33576848347982,240.9405505185363L226.17458625793455,237.550422438562L228.01340403238933,244.86641033781726L229.85222180684408,241.15934344140746L231.69103958129884,243.82208322556122L233.52985735575356,240.29525342357468L235.36867513020835,240.47081792535363L237.2074929046631,242.4900183399243L239.04631067911782,238.8018404875846L240.88512845357258,240.8971503395857L242.72394622802736,237.71997426140655L244.5627640024821,235.29349941243473L246.40158177693684,243.25719301479683L248.2403995513916,236.2991581906088L250.07921732584634,240.3333820860152L251.91803510030113,242.82277437161935L253.75685287475585,242.06825789318077L255.5956706492106,241.78565336967515L257.43448842366536,236.95374624592148L259.2733061981201,237.70295911097818L261.11212397257486,240.75065875747558L262.9509417470296,244.95492164012256L264.78975952148437,242.65428301456444L266.6285772959391,239.51570109932328L268.4673950703939,237.12146099401275L270.30621284484863,237.26193486169473L272.1450306193034,239.81828627450486L273.98384839375814,241.83115186415324L275.8226661682129,243.37175374059692L277.66148394266764,241.10422606897632L279.5003017171224,243.40448617379627L281.33911949157715,242.8905472099472L283.1779372660319,239.56365238588555L285.01675504048666,238.87538101511805L286.8555728149414,243.19535576327942L288.69439058939616,241.42302985666018L290.5332083638509,241.3347616850299L292.37202613830567,241.01976566146203L294.2108439127604,239.6266454465868L296.0496616872151,243.56774457460804L297.88847946166993,242.04703629297947L299.7272972361247,242.20793364387148L301.56611501057944,237.01584329104605L303.40493278503413,240.65817035254256L305.24375055948894,238.69281511210912L307.0825683339437,242.86923897883025L308.92138610839845,238.57337041014904L310.76020388285315,239.34231982577143L312.59902165730796,238.3264433268085L314.4378394317627,240.84222460058643L316.27665720621746,238.40871778225076L318.11547498067216,238.5002638509137L319.95429275512697,242.72229892716445L321.7931105295817,243.28623114709532L323.6319283040365,240.9977143794475L325.4707460784912,242.00716721015766L327.309563852946,239.79171547178208L329.14838162740074,236.7312316161966L330.9871994018555,235.72833104852864L332.8260171763102,241.6334393995703L334.664834950765,243.14006808704366L336.50365272521975,243.06953941653288L338.3424704996745,238.238925066628L340.1812882741292,241.60784963624204L342.02010604858395,239.97013045769538L343.85892382303877,237.35580458198882L345.6977415974935,240.1069718669117L347.5365593719482,243.43492779035665L349.37537714640297,244.06583939989008L351.2141949208578,239.58467238542275L353.05301269531253,238.39618794224577L354.8918304697672,242.2642905345721L356.730648244222,241.95096977701994L358.5694660186768,242.93742612276543L360.4082837931315,239.99615998241484L362.24710156758624,239.76732690104342L364.085919342041,239.7076658506991L365.9247371164958,243.86272385589413L367.7635548909505,241.8493702708853L369.60237266540526,242.13370181935417L371.44119043986,240.72272651460258L373.2800082143148,239.3845297334941L375.1188259887695,241.26783747338783L376.95764376322427,241.89961161470023L378.796461537679,237.54428795391183L380.63527931213383,239.7596825310785L382.47409708658853,240.0100568762761L384.3129148610433,239.80358130249434L386.15173263549804,242.33197337435556L387.99055040995285,241.24313012322793L389.82936818440754,240.8190170140619L391.6681859588623,238.60861212746053L393.50700373331705,239.97144672328307L395.3458215077718,239.1990178043982L397.18463928222656,240.85805277109594L399.0234570566813,239.1256084836504L400.86227483113606,238.57792891582412L402.7010926055908,241.39450774496325L404.53991038004557,240.64924102202036L406.3787281545003,242.58808324054147L408.2175459289551,240.966388536231L410.05636370340983,239.57346250625383L411.8951814778646,240.38456749722997L413.73399925231934,240.96018612348738L415.5728170267741,239.83389540115118L417.41163480122884,237.9451345688274L419.25045257568365,240.0410074696224L421.0892703501383,239.85701906301688L422.92808812459305,239.8510256424179L424.76690589904786,242.59135230044816L426.6057236735026,240.27313870842076L428.44454144795736,244.5233792025631L430.2833592224121,237.61581476408531L432.12217699686687,238.1316162634867L433.9609947713217,240.4057742225969L435.7998125457763,238.09319075943299L437.6386303202311,239.73885271606608L439.4774480946858,237.89216403688303L441.31626586914064,237.34692176373596L443.1550836435954,237.8700856059156L444.99390141805014,238.2561891386234L446.8327191925049,239.00534347133436L448.67153696695965,240.9752396036902L450.51035474141435,242.17840202908556L452.3491725158691,238.14422178849043L454.18799029032385,240.51409061543987L456.02680806477866,239.896507656444L457.8656258392334,235.172293957118L459.70444361368817,240.42333487521518L461.5432613881429,241.9690421092955L463.3820791625977,240.74474588777966L465.2208969370524,240.11732206650797L467.0597147115071,238.05499100753943L468.8985324859619,239.35078930779804L470.7373502604167,239.90682209367026L472.57616803487144,237.37599572308443L474.4149858093262,240.4140489220508L476.25380358378095,243.03684106804099L478.09262135823565,241.847128582645L479.9314391326904,242.33255645313224L481.77025690714515,240.3672548960947L483.6090746815999,238.14984353957865L485.4478924560547,238.96457199294156L487.28671023050947,242.9922779105475L489.1255280049642,244.82352130002334L490.964345779419,240.95910790296836L492.8031635538737,241.04042807764358L494.6419813283284,240.1379136628687L496.4807991027832,240.25748019000014L498.31961687723793,239.92433904173058L500.1584346516927,240.04355901570074L501.9972524261475,242.11519546316578L503.83607020060225,240.74133228940426L505.674887975057,242.0295244513117L507.5137057495117,239.8423739947322L509.35252352396645,236.3626038734871L511.1913412984212,237.915160128356L513.030159072876,237.31026940697527L514.8689768473307,240.86460501276608L516.7077946217855,238.83548088995119L518.5466123962402,240.59353621180216L520.385430170695,238.97275528036266L522.2242479451497,241.46162036760768L524.0630657196044,239.0321918175295L525.9018834940592,238.48487922856137L527.740701268514,238.96262907577506L529.5795190429687,240.98040316696174L531.4183368174236,240.8414082052539L533.2571545918782,241.48606349262394L535.095972366333,234.4002476926231L536.9347901407878,237.02351729892283L538.7736079152425,237.89277661741036L540.6124256896973,240.03202294849058L542.4512434641521,240.0456672251072L544.2900612386068,240.6744575009346L546.1288790130616,240.059675854005L547.9676967875163,239.80896248615088L549.806514561971,242.2396123871543L551.6453323364258,238.80337350410866L553.4841501108805,239.23311247992825L555.3229678853353,238.73906728318562L557.1617856597901,240.23689153235316L559.0006034342448,240.98783934621443L560.8394212086996,239.9012963405262L562.6782389831543,240.88322472815184L564.517056757609,243.1090443975976L566.3558745320638,240.47652240373347L568.1946923065185,239.45705239913272L570.0335100809733,239.8629791451882L571.872327855428,239.55920348989844L573.7111456298828,236.91309713947578L575.5499634043376,241.7550242125708L577.3887811787923,240.02689975369822L579.227598953247,239.01459189408675L581.0664167277018,236.46912650606467L582.9052345021565,238.6191100592795L584.7440522766113,239.7136329307501L586.582870051066,238.32669729672472L588.4216878255208,239.62142435277562L590.2605055999757,242.86548134763243L592.0993233744302,238.74025896910533L593.938141148885,243.6821903922645L595.7769589233399,239.92314228327018L597.6157766977946,240.5752408332983L599.4545944722494,240.13790987453197L601.2934122467041,242.3920555647927L603.1322300211589,238.46708514098054L604.9710477956137,239.77317597710785L606.8098655700683,243.3587177503753L608.6486833445231,240.1751666976352L610.4875011189779,239.48540197254525L612.3263188934326,241.09176269647767L614.1651366678874,241.20476026395554L616.0039544423421,238.14766641657118L617.8427722167969,239.39009648497904L619.6815899912517,238.41659065490046L621.5204077657063,239.5222089710104L623.3592255401611,241.35349702966886L625.1980433146159,237.7539779882071L627.0368610890706,240.0248914209329L628.8756788635254,241.32273637659594L630.7144966379801,238.5383120859213L632.5533144124349,238.85152084070515L634.3921321868897,238.91484153700603L636.2309499613443,240.8935894509103L638.0697677357991,238.41785894241266L639.9085855102539,239.43290990156058L641.7474032847086,238.8976377364141L643.5862210591634,241.37276465914692L645.4250388336181,236.27605315505681L647.263856608073,235.795328435076L649.1026743825278,238.18610066453635L650.9414921569823,239.35385110462403L652.7803099314372,238.96773524208592L654.619127705892,238.5211759021734L656.4579454803467,242.39184433930998L658.2967632548015,242.7063369429267L660.1355810292562,240.0056353175888L661.974398803711,241.07428427020872L663.8132165781657,240.79930573342835L665.6520343526204,238.63843004575273L667.4908521270752,240.21740655948608L669.32966990153,242.32631034967545L671.1684876759847,240.33847182935264L673.0073054504395,240.54924529027974L674.8461232248942,242.72193759559917L676.684940999349,240.24495433857444L678.5237587738037,240.27732384499058L680.3625765482584,239.62382361828276L682.2013943227132,240.1403326193158L684.0402120971679,239.61667309857998L685.8790298716227,239.17364587847592L687.7178476460775,238.68665866883413L689.5566654205322,241.41380031986128L691.395483194987,240.65213430114738L693.2343009694417,242.76409151127953L695.0731187438964,240.20747291594867L696.9119365183512,240.84333073123526L698.7507542928059,240.19913349159202L700.5895720672607,237.26879925777766L702.4283898417156,240.13064430393334L704.2672076161703,240.18547047681685L706.1060253906251,243.0674589287092L707.9448431650798,241.9393640927929L709.7836609395345,240.04489551174126L711.6224787139893,238.01712934838272L713.461296488444,238.42902407088272L715.3001142628988,238.3713116931514L717.1389320373536,241.07687389528348L718.9777498118083,240.50832747264207L720.816567586263,237.62541280976114L722.6553853607178,239.64482196790732L724.4942031351725,243.72899047672922L726.3330209096273,239.24842169960064L728.171838684082,240.95126347439924L730.0106564585368,239.3316615757646L731.8494742329916,240.02503457479705L733.6882920074463,243.9259824809379L735.527109781901,240.1598975107165L737.3659275563558,238.52084631835055L739.2047453308105,240.54943191699917L741.0435631052653,236.52885878317582L742.88238087972,240.05188737231597L744.7211986541748,240.23663731995683L746.5600164286296,237.46142838418663L748.3988342030843,237.94428161998974L750.237651977539,237.3099038812235L752.0764697519938,240.36309212507635L753.9152875264485,238.34877553810816L755.7541053009033,241.1683095562092L757.592923075358,240.61142058924563L759.4317408498129,240.31400574487554L761.2705586242677,239.7752056524657L763.1093763987224,242.17263254459814L764.9481941731771,240.18670825820746L766.7870119476319,239.14095524265605L768.6258297220866,238.08955124292376L770.4646474965414,239.4153483448581L772.3034652709961,239.90617263493155L774.1422830454509,237.5712791398939L775.9811008199057,239.8753018166803L777.8199185943603,238.84518616641375L779.6587363688151,240.45563103634927" fill="none"></path></g></g></g></g><g opacity="0.2"><g><g><g><path style="fill: none;" stroke="rgb(0, 119, 187)" stroke-width="2px" d="M91.94088872273763,243.43025708162824L93.77970649719238,130.34010201648474L95.61852427164713,4.5850615574329785L97.45734204610189,128.0785763431132L99.29615982055664,152.26456695524615L101.13497759501139,162.36632234554773L102.97379536946615,171.41636684320045L104.81261314392091,178.67065675600895L106.65143091837565,198.39829792121972L108.49024869283042,171.95080040621124L110.32906646728516,184.0461326390337L112.16788424173991,198.86031491054072L114.00670201619467,189.65310504961568L115.84551979064942,195.58317400838914L117.68433756510417,175.91972793960633L119.52315533955891,178.06018391357424L121.36197311401368,195.81199574026198L123.20079088846842,192.80162112771097L125.03960866292317,200.50367183810462L126.87842643737793,198.2507055109235L128.71724421183268,215.8840848929L130.55606198628743,185.26493848735552L132.39487976074219,199.5655224464468L134.23369753519694,185.52001075792847L136.0725153096517,199.26761590392974L137.91133308410645,193.00532793589358L139.7501508585612,205.44598098420875L141.58896863301595,216.2766135059121L143.4277864074707,194.42179649267584L145.26660418192546,218.10140604811718L147.1054219563802,205.5457837116086L148.94423973083497,210.54642217413087L150.78305750528972,203.99637311668275L152.62187527974447,213.55785731970767L154.46069305419923,207.36738526948824L156.29951082865398,202.99353121045212L158.13832860310873,206.51649052863317L159.97714637756349,216.636256209877L161.81596415201824,207.85726706016814L163.654781926473,201.94106011271404L165.49359970092775,212.7181967207275L167.3324174753825,217.5686712149972L169.17123524983725,206.95076472481955L171.01005302429198,206.3410990137142L172.84887079874676,205.15465350055078L174.68768857320148,216.95394685521134L176.52650634765627,215.58588740769449L178.365324122111,220.533180120495L180.20414189656574,213.90773936573606L182.0429596710205,207.79362569337312L183.88177744547525,219.19370813843426L185.72059521993,211.29481123615759L187.55941299438476,221.2416724932066L189.3982307688395,214.913762871044L191.23704854329426,220.80449825538335L193.07586631774902,211.09201479703248L194.91468409220377,221.97558011754492L196.75350186665852,218.22129320627081L198.59231964111328,217.73555030996587L200.43113741556803,217.55617006464018L202.26995519002278,219.97074097740506L204.10877296447754,220.8790828213648L205.9475907389323,220.33877409309608L207.78640851338704,218.84122637870544L209.62522628784183,218.50735556579193L211.46404406229652,221.00774518641313L213.3028618367513,224.1620238067901L215.14167961120606,221.9515820383685L216.98049738566084,225.74169244131892L218.81931516011554,218.05760509562745L220.65813293457032,215.39535748772605L222.49695070902507,226.53441741497215L224.33576848347982,223.5374730923317L226.17458625793455,225.60655425513957L228.01340403238933,219.4205026567357L229.85222180684408,222.41751267611218L231.69103958129884,218.852282200868L233.52985735575356,223.16470042639278L235.36867513020835,219.6962506286874L237.2074929046631,224.14666954103635L239.04631067911782,227.19334629291237L240.88512845357258,227.82202651649766L242.72394622802736,224.4279454240694L244.5627640024821,226.19336688732656L246.40158177693684,220.43895223041656L248.2403995513916,231.47191192884418L250.07921732584634,221.5938820807429L251.91803510030113,226.53310348024988L253.75685287475585,225.61703757717322L255.5956706492106,222.10826875399204L257.43448842366536,230.09243063449216L259.2733061981201,228.42982456324788L261.11212397257486,229.59559437503256L262.9509417470296,222.97835632703936L264.78975952148437,229.38746711503453L266.6285772959391,228.44665231294016L268.4673950703939,228.66576031311666L270.30621284484863,226.89542097989926L272.1450306193034,230.97866083412666L273.98384839375814,225.03636289718867L275.8226661682129,223.74951400075233L277.66148394266764,224.62514825537707L279.5003017171224,226.03361119560188L281.33911949157715,223.21248072404114L283.1779372660319,226.97662214573182L285.01675504048666,225.40054806119312L286.8555728149414,225.11353779162246L288.69439058939616,225.33602448108465L290.5332083638509,223.57189818205367L292.37202613830567,227.8314493055055L294.2108439127604,227.25399376559037L296.0496616872151,225.0257669521788L297.88847946166993,227.19800137592813L299.7272972361247,228.5909786569269L301.56611501057944,227.64252426294775L303.40493278503413,226.49228703662925L305.24375055948894,228.5941321002602L307.0825683339437,230.6460476444472L308.92138610839845,231.32546451880586L310.76020388285315,227.05962527918342L312.59902165730796,230.58517492581683L314.4378394317627,229.1441076339852L316.27665720621746,233.7209739928508L318.11547498067216,227.36020661738493L319.95429275512697,225.23804249179986L321.7931105295817,224.32805822943735L323.6319283040365,228.12141592820123L325.4707460784912,223.37042506289876L327.309563852946,228.23951050398378L329.14838162740074,230.51880245184918L330.9871994018555,231.45270971140388L332.8260171763102,228.6782051519856L334.664834950765,223.15370091571833L336.50365272521975,229.24665085380565L338.3424704996745,231.78909577078568L340.1812882741292,226.37601319896174L342.02010604858395,226.65806805758007L343.85892382303877,234.2639012053159L345.6977415974935,225.28372987914065L347.5365593719482,225.4030445371653L349.37537714640297,224.25268530262258L351.2141949208578,227.72040305098272L353.05301269531253,227.4842138994175L354.8918304697672,224.71132360265796L356.730648244222,227.77194683308548L358.5694660186768,225.05571527859715L360.4082837931315,230.14554175301342L362.24710156758624,230.30309191145446L364.085919342041,228.6153239902799L365.9247371164958,224.5035529820845L367.7635548909505,228.30660564204862L369.60237266540526,227.46778033014192L371.44119043986,226.38608357008263L373.2800082143148,226.38837357059853L375.1188259887695,228.94244680987L376.95764376322427,225.6684499658037L378.796461537679,231.97907196112112L380.63527931213383,227.37664018666064L382.47409708658853,227.72836174130018L384.3129148610433,231.36243301074003L386.15173263549804,223.90304727304255L387.99055040995285,227.35435960787112L389.82936818440754,226.38474147961642L391.6681859588623,232.42579099617643L393.50700373331705,228.32067412882435L395.3458215077718,231.8027606918966L397.18463928222656,229.37252580019333L399.0234570566813,233.00879321766897L400.86227483113606,230.73062749956546L402.7010926055908,227.0753643401059L404.53991038004557,228.3610213100442L406.3787281545003,222.4312902201993L408.2175459289551,229.28064422211887L410.05636370340983,229.18410756102844L411.8951814778646,231.5974490063033L413.73399925231934,225.8726729626272L415.5728170267741,229.58863990625287L417.41163480122884,234.0085849182945L419.25045257568365,227.77971781844255L421.0892703501383,230.35132270100758L422.92808812459305,230.39649389970748L424.76690589904786,227.83410533069397L426.6057236735026,232.27442571617786L428.44454144795736,222.48853084784756L430.2833592224121,228.36079606409183L432.12217699686687,230.95831361642837L433.9609947713217,226.50846720420844L435.7998125457763,229.9142423156644L437.6386303202311,230.83183801416766L439.4774480946858,230.14852626188244L441.31626586914064,229.1483685365844L443.1550836435954,233.00822071753998L444.99390141805014,230.54708958936882L446.8327191925049,229.4898977118788L448.67153696695965,224.03171902333895L450.51035474141435,229.07207585546402L452.3491725158691,230.20276361016568L454.18799029032385,229.00524350434364L456.02680806477866,231.044263717757L457.8656258392334,232.20544414326184L459.70444361368817,228.5933531246749L461.5432613881429,232.22963931264655L463.3820791625977,227.70396009645907L465.2208969370524,229.3136709098864L467.0597147115071,229.43897335614508L468.8985324859619,230.55078737708698L470.7373502604167,230.50425531742474L472.57616803487144,235.06302691811584L474.4149858093262,222.77077341142626L476.25380358378095,225.66873152324416L478.09262135823565,229.9249602688985L479.9314391326904,231.24972556731848L481.77025690714515,227.65106483864213L483.6090746815999,231.66684353013207L485.4478924560547,231.3206968128139L487.28671023050947,224.89105110216028L489.1255280049642,228.23201169081923L490.964345779419,227.70609054775872L492.8031635538737,229.21408404319092L494.6419813283284,231.26002118439186L496.4807991027832,230.99625817415625L498.31961687723793,231.56291129360523L500.1584346516927,230.26673346064126L501.9972524261475,225.52752108159865L503.83607020060225,227.41795404842605L505.674887975057,229.53265690183866L507.5137057495117,231.91969149692525L509.35252352396645,233.37783055489763L511.1913412984212,230.01889721628842L513.030159072876,232.29756973778478L514.8689768473307,225.60991417392924L516.7077946217855,230.06491308730983L518.5466123962402,228.3292053192707L520.385430170695,227.7157573532149L522.2242479451497,231.58486338871413L524.0630657196044,227.16571612275385L525.9018834940592,231.68783832994333L527.740701268514,228.60186554462527L529.5795190429687,228.52270097761206L531.4183368174236,229.43711507703796L533.2571545918782,227.19014592333892L535.095972366333,236.00062258014074L536.9347901407878,228.4917953558961L538.7736079152425,230.46783116987552L540.6124256896973,229.59216875950673L542.4512434641521,229.41057359564934L544.2900612386068,230.68783076861348L546.1288790130616,231.36696608553166L547.9676967875163,231.75924129684742L549.806514561971,224.2109397194484L551.6453323364258,232.82193292967474L553.4841501108805,231.90316407516946L555.3229678853353,231.3173932055123L557.1617856597901,227.71133690139948L559.0006034342448,227.50441095314753L560.8394212086996,230.71648393080565L562.6782389831543,228.65809256548783L564.517056757609,226.52724708548803L566.3558745320638,232.1740974148892L568.1946923065185,230.7408949608947L570.0335100809733,227.11409725866702L571.872327855428,227.5823460526706L573.7111456298828,232.0601605039775L575.5499634043376,226.54710627028945L577.3887811787923,232.98965669696483L579.227598953247,231.66842963704667L581.0664167277018,235.6229883557296L582.9052345021565,230.8740904007348L584.7440522766113,230.3330777788649L586.582870051066,231.0849112269133L588.4216878255208,229.94680912627925L590.2605055999757,226.62144681982252L592.0993233744302,232.81495969039895L593.938141148885,226.17326368607675L595.7769589233399,230.65293641649077L597.6157766977946,228.28195998075924L599.4545944722494,231.33584460311138L601.2934122467041,227.80631561131923L603.1322300211589,231.44755721024322L604.9710477956137,232.27669694619775L606.8098655700683,225.59244822737185L608.6486833445231,231.3175433694806L610.4875011189779,230.901589177421L612.3263188934326,231.29235336380617L614.1651366678874,231.63423917852523L616.0039544423421,233.7049627597358L617.8427722167969,230.78572829066613L619.6815899912517,235.24548552479072L621.5204077657063,230.4392812454115L623.3592255401611,230.17954450657467L625.1980433146159,233.82760918080606L627.0368610890706,228.41883443782137L628.8756788635254,228.92686729816387L630.7144966379801,229.66130988163908L632.5533144124349,229.88965296586312L634.3921321868897,232.11106608921511L636.2309499613443,231.38463850754545L638.0697677357991,232.94244889944537L639.9085855102539,232.09105674044548L641.7474032847086,230.2127964402946L643.5862210591634,228.76250344966337L645.4250388336181,233.2076103116354L647.263856608073,232.5697982417307L649.1026743825278,229.55335137371347L650.9414921569823,228.4578958400631L652.7803099314372,231.8145485634045L654.619127705892,229.79578171520924L656.4579454803467,226.90075180077227L658.2967632548015,226.68939601545674L660.1355810292562,229.90771018304542L661.974398803711,229.40730752933985L663.8132165781657,230.77112484475361L665.6520343526204,235.2026606380947L667.4908521270752,229.69787480790853L669.32966990153,228.57027479980414L671.1684876759847,232.92064696830477L673.0073054504395,224.4460214117478L674.8461232248942,224.93965730163396L676.684940999349,229.2514561007897L678.5237587738037,228.45294042911075L680.3625765482584,228.50664281825712L682.2013943227132,231.16180456390663L684.0402120971679,226.2151782037152L685.8790298716227,229.57903879753272L687.7178476460775,233.571288672247L689.5566654205322,230.2684791167722L691.395483194987,231.0589422456536L693.2343009694417,230.27376301140507L695.0731187438964,233.79013388547904L696.9119365183512,228.79173849723256L698.7507542928059,232.66369764812862L700.5895720672607,234.66941900158187L702.4283898417156,229.12400443273538L704.2672076161703,230.61507632599512L706.1060253906251,229.51649550475548L707.9448431650798,230.4450156319491L709.7836609395345,229.74084985857286L711.6224787139893,232.80630649172846L713.461296488444,230.7568874235136L715.3001142628988,230.83065547291767L717.1389320373536,228.5411523752111L718.9777498118083,228.62333899208534L720.816567586263,231.8511791864101L722.6553853607178,231.0617108938183L724.4942031351725,226.44530448506228L726.3330209096273,231.23750597440193L728.171838684082,229.0737558148589L730.0106564585368,233.02436334412715L731.8494742329916,229.80269864299683L733.6882920074463,225.30113012896192L735.527109781901,232.1223377720821L737.3659275563558,231.82119331899966L739.2047453308105,229.7021450957557L741.0435631052653,233.18642780686372L742.88238087972,230.77724402645984L744.7211986541748,231.6705788588423L746.5600164286296,233.23200257122835L748.3988342030843,231.95326252907773L750.237651977539,233.24494482824218L752.0764697519938,231.67675435203674L753.9152875264485,230.75833275170805L755.7541053009033,230.13077875788466L757.592923075358,231.07630495448288L759.4317408498129,228.76128336742138L761.2705586242677,230.13307814364848L763.1093763987224,226.95912804343038L764.9481941731771,229.4364768801729L766.7870119476319,230.77826701849358L768.6258297220866,231.4159664654221L770.4646474965414,229.195144612695L772.3034652709961,232.35979393212943L774.1422830454509,232.0665800136203L775.9811008199057,228.1537950338557L777.8199185943603,231.34073431732756L779.6587363688151,232.20199037199205" fill="none"></path></g><g><path style="fill: none;" stroke="rgb(204, 51, 17)" stroke-width="2px" d="M91.94088872273763,246.51252269398012L93.77970649719238,289.9593697760107L95.61852427164713,306.0895890652831L97.45734204610189,269.9035077171919L99.29615982055664,268.32401270975146L101.13497759501139,279.0136741136338L102.97379536946615,248.16583736968866L104.81261314392091,236.34381294433393L106.65143091837565,260.18271831434714L108.49024869283042,273.8035099891591L110.32906646728516,260.8172080064543L112.16788424173991,258.2173347568657L114.00670201619467,266.50643273064657L115.84551979064942,248.56115340136154L117.68433756510417,261.3068645511818L119.52315533955891,265.5301510763007L121.36197311401368,254.28681165835116L123.20079088846842,260.7235150755127L125.03960866292317,245.47582819815656L126.87842643737793,256.9947184978494L128.71724421183268,249.0062394032621L130.55606198628743,259.3951646123506L132.39487976074219,250.86564474014932L134.23369753519694,260.65382022374746L136.0725153096517,255.37059194346992L137.91133308410645,254.4047936111576L139.7501508585612,251.1718384566643L141.58896863301595,254.1038650187795L143.4277864074707,250.72672429901968L145.26660418192546,250.93212983709319L147.1054219563802,239.72331874659372L148.94423973083497,254.74661372914053L150.78305750528972,258.6214259954333L152.62187527974447,240.08642460707645L154.46069305419923,255.4484895020009L156.29951082865398,240.29991084369144L158.13832860310873,246.7317057761407L159.97714637756349,249.81130597805614L161.81596415201824,252.26097771840003L163.654781926473,253.09882696451322L165.49359970092775,252.45094452348752L167.3324174753825,241.81698925920298L169.17123524983725,253.31930521089998L171.01005302429198,247.772379617123L172.84887079874676,256.1380049032246L174.68768857320148,241.7124939077952L176.52650634765627,243.76827617416467L178.365324122111,236.88706864047958L180.20414189656574,245.49252455437664L182.0429596710205,253.07525122149752L183.88177744547525,254.2809364930933L185.72059521993,250.42009886109597L187.55941299438476,250.2998832192618L189.3982307688395,245.34438779969545L191.23704854329426,236.6219729250258L193.07586631774902,245.95175412503693L194.91468409220377,251.71857607982386L196.75350186665852,245.33024423093565L198.59231964111328,244.86346892087067L200.43113741556803,240.37394168003996L202.26995519002278,244.6259846050792L204.10877296447754,234.2847083001669L205.9475907389323,249.44764638794052L207.78640851338704,243.98432458348805L209.62522628784183,239.0501524474136L211.46404406229652,247.35471730992455L213.3028618367513,251.1473429593431L215.14167961120606,240.91506692488605L216.98049738566084,247.35340337520228L218.81931516011554,240.8284410857004L220.65813293457032,248.94638029141743L222.49695070902507,242.57552377433467L224.33576848347982,243.95708859374622L226.17458625793455,243.65603799314397L228.01340403238933,243.00878436373534L229.85222180684408,244.63858899316446L231.69103958129884,245.96190896339007L233.52985735575356,250.1669693368623L235.36867513020835,242.75868627461077L237.2074929046631,239.96130986577796L239.04631067911782,244.71301400992957L240.88512845357258,241.61960810818297L242.72394622802736,240.97611796322877L244.5627640024821,246.68551158540706L246.40158177693684,242.30761248447607L248.2403995513916,248.83002198651778L250.07921732584634,240.79493575028405L251.91803510030113,232.582468326552L253.75685287475585,238.52959966621808L255.5956706492106,233.71399136832704L257.43448842366536,241.16710776034992L259.2733061981201,235.9437667476611L261.11212397257486,235.184415715952L262.9509417470296,237.76918810148317L264.78975952148437,237.0274531802997L266.6285772959391,247.87676234555448L268.4673950703939,240.34022986916725L270.30621284484863,236.82176608478582L272.1450306193034,239.10106741789917L273.98384839375814,237.33939066860032L275.8226661682129,240.4672498158129L277.66148394266764,241.36431997690562L279.5003017171224,240.08026788437803L281.33911949157715,244.55652438451438L283.1779372660319,243.17030448208698L285.01675504048666,237.71708120449955L286.8555728149414,239.03702248543948L288.69439058939616,238.56485065776536L290.5332083638509,242.12124961462663L292.37202613830567,239.61196277888644L294.2108439127604,243.40491691198562L296.0496616872151,237.24603560658733L297.88847946166993,233.6771824256091L299.7272972361247,239.3820711287398L301.56611501057944,238.0102763525127L303.40493278503413,243.1833218210849L305.24375055948894,236.68570814430095L307.0825683339437,237.39382510709189L308.92138610839845,241.58295871468138L310.76020388285315,241.6251923307524L312.59902165730796,239.47169086204252L314.4378394317627,240.8796657693705L316.27665720621746,242.84665420426265L318.11547498067216,239.92445399681998L319.95429275512697,236.1556293363695L321.7931105295817,242.19321569641167L323.6319283040365,240.70312925419358L325.4707460784912,236.32088478343135L327.309563852946,244.62820890885894L329.14838162740074,239.37861735747003L330.9871994018555,241.65347946827194L332.8260171763102,237.5688130563462L334.664834950765,238.513475810127L336.50365272521975,241.39697125475251L338.3424704996745,244.95586668758602L340.1812882741292,238.86281351177047L342.02010604858395,235.6549732809674L343.85892382303877,240.22171295722399L345.6977415974935,242.19875299274105L347.5365593719482,238.73397282700978L349.37537714640297,234.36262462919387L351.2141949208578,243.2616604862727L353.05301269531253,244.07561489093763L354.8918304697672,241.28754864813655L356.730648244222,242.86600658567122L358.5694660186768,240.41074123750985L360.4082837931315,241.65156487767672L362.24710156758624,239.66204246229864L364.085919342041,241.70768866081116L365.9247371164958,236.1846015969942L367.7635548909505,240.30382449211402L369.60237266540526,242.81984055068162L371.44119043986,239.48829336578243L373.2800082143148,243.52327427471263L375.1188259887695,239.683666073727L376.95764376322427,239.89299464547113L378.796461537679,243.9126212886475L380.63527931213383,240.92343856611618L382.47409708658853,239.69616722408404L384.3129148610433,240.33000933407806L386.15173263549804,239.76595592832948L387.99055040995285,238.47443317838128L389.82936818440754,235.35637223009726L391.6681859588623,242.19155450751288L393.50700373331705,238.68021412637543L395.3458215077718,247.34979943996422L397.18463928222656,240.127822936074L399.0234570566813,241.06337261403152L400.86227483113606,241.27273872676764L402.7010926055908,240.0086678272656L404.53991038004557,241.47633291197405L406.3787281545003,234.34013757494807L408.2175459289551,242.0912262062242L410.05636370340983,241.446018560883L411.8951814778646,236.69833130288222L413.73399925231934,233.52786312967794L415.5728170267741,244.60007193530768L417.41163480122884,237.00962120906976L419.25045257568365,241.60957527805408L421.0892703501383,235.78950142602565L422.92808812459305,240.3001924011319L424.76690589904786,233.90228759926768L426.6057236735026,238.15038872014028L428.44454144795736,240.83351850487688L430.2833592224121,239.9540738395578L432.12217699686687,243.23883556309823L433.9609947713217,238.98407091613447L435.7998125457763,243.34227038148026L437.6386303202311,242.1515076542296L439.4774480946858,241.7894998677647L441.31626586914064,243.5285393988495L443.1550836435954,244.53160655103247L444.99390141805014,240.9327862731399L446.8327191925049,241.2019927272246L448.67153696695965,239.37759436543627L450.51035474141435,238.68407146330992L452.3491725158691,243.50177267150852L454.18799029032385,242.74046950821213L456.02680806477866,237.5506807571797L457.8656258392334,245.03995850980743L459.70444361368817,234.33015167105933L461.5432613881429,235.2074377293347L463.3820791625977,239.81513462793214L465.2208969370524,243.01715600496547L467.0597147115071,246.08925739371625L468.8985324859619,241.13482250717564L470.7373502604167,242.35771093838434L472.57616803487144,242.0219818463637L474.4149858093262,239.53228202323243L476.25380358378095,238.34910257637856L478.09262135823565,242.29333752224406L479.9314391326904,237.36426157584216L481.77025690714515,242.3901275850309L483.6090746815999,242.3986118492371L485.4478924560547,239.85753717846745L487.28671023050947,239.66617197142565L489.1255280049642,231.62044286394203L490.964345779419,245.11624180567975L492.8031635538737,238.26808911550626L494.6419813283284,236.90212257829697L496.4807991027832,238.21083910260995L498.31961687723793,241.43077691810544L500.1584346516927,239.33822325001003L501.9972524261475,237.86615648398225L503.83607020060225,244.95019799778447L505.674887975057,237.05041888219438L507.5137057495117,238.9172948765021L509.35252352396645,243.1040258605995L511.1913412984212,241.5065721810809L513.030159072876,239.5294289078356L514.8689768473307,241.03774150170037L516.7077946217855,243.87878746955053L518.5466123962402,239.81753725142423L520.385430170695,243.54068390978196L522.2242479451497,235.59991941610687L524.0630657196044,241.7486083421599L525.9018834940592,240.02919336467613L527.740701268514,240.3890237736013L529.5795190429687,234.85504982208607L531.4183368174236,240.4087234091865L533.2571545918782,237.93483772896178L535.095972366333,243.9590313400855L536.9347901407878,237.77535420942954L538.7736079152425,240.4732845302871L540.6124256896973,240.21214938949583L542.4512434641521,237.46947959134712L544.2900612386068,235.85582697375327L546.1288790130616,236.41614505079158L547.9676967875163,238.51321302318252L549.806514561971,243.1269352510061L551.6453323364258,242.91187229272435L553.4841501108805,240.92265020528285L555.3229678853353,236.97452038149066L557.1617856597901,238.6355778868123L559.0006034342448,232.8174937073632L560.8394212086996,239.97489970490489L562.6782389831543,240.27111690277903L564.517056757609,234.82649989762206L566.3558745320638,239.67070504621728L568.1946923065185,243.1403467704206L570.0335100809733,241.45678344035713L571.872327855428,244.9434593897092L573.7111456298828,241.30462979952523L575.5499634043376,241.76426293585024L577.3887811787923,241.68919972222L579.227598953247,238.69355994905388L581.0664167277018,243.1296100466906L582.9052345021565,242.2550738660837L584.7440522766113,238.43190861962182L586.582870051066,241.976979582128L588.4216878255208,241.36588731332424L590.2605055999757,243.27565389106422L592.0993233744302,235.228376217658L593.938141148885,235.17546218934496L595.7769589233399,244.35407519956595L597.6157766977946,236.98898304868305L599.4545944722494,243.37679870893027L601.2934122467041,241.89524345715853L603.1322300211589,239.15214193760107L604.9710477956137,240.56887328132785L606.8098655700683,238.8987027001829L608.6486833445231,242.31662232257122L610.4875011189779,240.99153792571866L612.3263188934326,242.33193904733298L614.1651366678874,238.48329285250824L616.0039544423421,244.3397345405978L617.8427722167969,240.4113606638789L619.6815899912517,239.4677678283719L621.5204077657063,241.01176313519272L623.3592255401611,237.75944621404278L625.1980433146159,244.46120780566613L627.0368610890706,239.97811884497423L628.8756788635254,239.8083021673767L630.7144966379801,242.55979409866026L632.5533144124349,240.989369933427L634.3921321868897,242.3102403539205L636.2309499613443,235.50118660698075L638.0697677357991,242.16428097677903L639.9085855102539,242.85009859028446L641.7474032847086,241.05492589081732L643.5862210591634,239.2681905293163L645.4250388336181,243.770209535256L647.263856608073,242.15842458201718L649.1026743825278,239.47539803500874L650.9414921569823,239.3681997321725L652.7803099314372,242.60049791930467L654.619127705892,244.3970784059742L656.4579454803467,236.47283194880697L658.2967632548015,244.9097757345805L660.1355810292562,240.5205392540465L661.974398803711,240.67403498534472L663.8132165781657,239.84283988007473L665.6520343526204,240.44786927866028L667.4908521270752,243.4902663574411L669.32966990153,245.2603429037141L671.1684876759847,239.15800771761096L673.0073054504395,244.22892291727547L674.8461232248942,241.08697651279115L676.684940999349,241.5002465239182L678.5237587738037,242.5517040148706L680.3625765482584,241.86507927003586L682.2013943227132,239.64835877069163L684.0402120971679,238.0466348033258L685.8790298716227,236.84081813825782L687.7178476460775,240.59386619679384L689.5566654205322,237.52652312878706L691.395483194987,241.3792988327388L693.2343009694417,239.74300899693088L695.0731187438964,239.73982739785353L696.9119365183512,243.2955787726017L698.7507542928059,239.32961697757958L700.5895720672607,236.31857601241947L702.4283898417156,238.61161734862802L704.2672076161703,239.1395375495159L706.1060253906251,238.7698432449261L707.9448431650798,235.90430177975475L709.7836609395345,246.6745120747325L711.6224787139893,243.20064698892207L713.461296488444,240.51263687521723L715.3001142628988,243.0616796215523L717.1389320373536,236.686937611791L718.9777498118083,239.65033905802298L720.816567586263,234.8313614560942L722.6553853607178,240.1072035461834L724.4942031351725,237.53316788438224L726.3330209096273,241.31890476175724L728.171838684082,236.23463435416636L730.0106564585368,236.17011077405778L731.8494742329916,240.48524133625915L733.6882920074463,233.67339078541076L735.527109781901,239.08543159470494L737.3659275563558,241.36176718944537L739.2047453308105,239.17716300881122L741.0435631052653,245.94148666370768L742.88238087972,240.2221352933847L744.7211986541748,236.84252625339667L746.5600164286296,237.8229843431097L748.3988342030843,243.28795795121292L750.237651977539,238.17805643129088L752.0764697519938,239.9163169867903L753.9152875264485,239.05996003159004L755.7541053009033,239.11002094450623L757.592923075358,241.75166793301312L759.4317408498129,236.53091724877666L761.2705586242677,236.19687750139886L763.1093763987224,238.92960832189883L764.9481941731771,238.43625398945306L766.7870119476319,242.09997325737487L768.6258297220866,239.67855111355843L770.4646474965414,240.87667187525352L772.3034652709961,242.2023944689711L774.1422830454509,244.9795175125858L775.9811008199057,235.3291362403554L777.8199185943603,241.44096929745058L779.6587363688151,240.67029965663437" fill="none"></path></g><g><path style="fill: none;" stroke="rgb(51, 187, 238)" stroke-width="2px" d="M91.94088872273763,230.94178619467257L93.77970649719238,256.24534398478113L95.61852427164713,271.29013118528405L97.45734204610189,279.53997535923895L99.29615982055664,273.0933798906688L101.13497759501139,256.74518352360576L102.97379536946615,275.2210953904553L104.81261314392091,278.76624143494564L106.65143091837565,261.7746065417924L108.49024869283042,251.24004105399504L110.32906646728516,257.7389217392611L112.16788424173991,244.5052433893562L114.00670201619467,248.00783671934295L115.84551979064942,257.29418299153707L117.68433756510417,258.0808450949722L119.52315533955891,246.11124702981724L121.36197311401368,252.65039981431897L123.20079088846842,247.20929289191997L125.03960866292317,258.7748935709874L126.87842643737793,254.1786748307133L128.71724421183268,251.61759081117395L130.55606198628743,252.23769291807287L132.39487976074219,252.65871514406098L134.23369753519694,245.81313401184386L136.0725153096517,248.16427003327004L137.91133308410645,250.63539645057813L139.7501508585612,247.2307944951241L141.58896863301595,247.3116577920281L143.4277864074707,252.26923673665394L145.26660418192546,243.16261796396205L147.1054219563802,249.996758478848L148.94423973083497,247.2867587290422L150.78305750528972,236.70409384516387L152.62187527974447,249.0338883439166L154.46069305419923,249.96636904577286L156.29951082865398,251.75232543168858L158.13832860310873,253.58167920442924L159.97714637756349,248.38511430432945L161.81596415201824,246.8457740805246L163.654781926473,248.50928113557828L165.49359970092775,245.70328906906707L167.3324174753825,249.1849908369707L169.17123524983725,242.75553283127746L171.01005302429198,249.12090836351894L172.84887079874676,236.40422578581152L174.68768857320148,249.04832285536486L176.52650634765627,251.2181734261182L178.365324122111,250.99213911290605L180.20414189656574,243.44847384802688L182.0429596710205,243.19164653607487L183.88177744547525,240.63827719040458L185.72059521993,246.254437758794L187.55941299438476,240.9124765964337L189.3982307688395,246.59003545734248L191.23704854329426,244.9775841514946L193.07586631774902,239.2037608016879L194.91468409220377,236.45395821504718L196.75350186665852,244.75094918240939L198.59231964111328,242.03798369423066L200.43113741556803,250.80353316878086L202.26995519002278,242.77504476190228L204.10877296447754,242.23194861497288L205.9475907389323,241.52513620165607L207.78640851338704,235.9921289306865L209.62522628784183,244.4751918252096L211.46404406229652,242.40431808003078L213.3028618367513,236.18147630940496L215.14167961120606,241.3827713745047L216.98049738566084,239.79743405017442L218.81931516011554,246.85827523088162L220.65813293457032,238.63931321552258L222.49695070902507,239.5328075971213L224.33576848347982,241.3789891195543L226.17458625793455,236.29653945007843L228.01340403238933,247.57232367041848L229.85222180684408,239.78823650711888L231.69103958129884,244.8069321868236L233.52985735575356,238.99080952420974L235.36867513020835,240.5357527410801L237.2074929046631,243.2368458905189L239.04631067911782,237.4377199120617L240.88512845357258,241.67212795607935L242.72394622802736,236.5448543420801L244.5627640024821,234.39603611213013L246.40158177693684,246.202668730739L248.2403995513916,233.72563846111458L250.07921732584634,241.82549229390528L251.91803510030113,243.74350850465103L253.75685287475585,241.78919015458018L255.5956706492106,241.68112840892644L257.43448842366536,235.1666025152181L259.2733061981201,237.9800652391499L261.11212397257486,241.8778901335774L262.9509417470296,246.5099229802797L264.78975952148437,241.80336187908406L266.6285772959391,238.35485573341217L268.4673950703939,236.23592013314448L270.30621284484863,237.31389094974145L272.1450306193034,240.76378611211962L273.98384839375814,242.57563639731086L275.8226661682129,243.94156539352818L277.66148394266764,240.26555145070571L279.5003017171224,244.25526730845573L281.33911949157715,242.70046019592084L283.1779372660319,238.3331570399997L285.01675504048666,238.62081489168347L286.8555728149414,244.79315464273637L288.69439058939616,240.76751205558193L290.5332083638509,241.30211455305698L292.37202613830567,240.90326028288217L294.2108439127604,239.11138180546854L296.0496616872151,245.025411375383L297.88847946166993,241.48458254497993L299.7272972361247,242.26744362296853L301.56611501057944,235.0954811057545L303.40493278503413,242.00533241638368L305.24375055948894,237.96590289989408L307.0825683339437,244.41394369665858L308.92138610839845,236.98448751488343L310.76020388285315,239.6267257740153L312.59902165730796,237.95070818335645L314.4378394317627,241.77271904431248L316.27665720621746,237.50865361656506L318.11547498067216,238.53412335576166L319.95429275512697,244.28387354440784L321.7931105295817,243.49480881748076L323.6319283040365,240.15127667086546L325.4707460784912,242.38052647631076L327.309563852946,238.97230181512268L329.14838162740074,235.59927183399378L330.9871994018555,235.35739522213092L332.8260171763102,243.8175205705035L334.664834950765,243.6973143139174L336.50365272521975,243.0434534699057L338.3424704996745,236.4522594851563L340.1812882741292,242.85389023048282L342.02010604858395,239.36439870672612L343.85892382303877,236.3888621348097L345.6977415974935,241.12452689010237L347.5365593719482,244.66581559765825L349.37537714640297,244.2991902691696L351.2141949208578,237.927254448565L353.05301269531253,237.95661150435845L354.8918304697672,243.69495861666536L356.730648244222,241.83508401737737L358.5694660186768,243.30227983968496L360.4082837931315,238.90829442365498L362.24710156758624,239.6826900079334L364.085919342041,239.68559943481833L365.9247371164958,245.39952613178824L367.7635548909505,241.10470524629304L369.60237266540526,242.23886554276046L371.44119043986,240.20085893613285L373.2800082143148,238.88958023911155L375.1188259887695,241.96440334978686L376.95764376322427,242.1332815025829L378.796461537679,235.9334148190997L380.63527931213383,240.57907504592094L382.47409708658853,240.1026610861437L384.3129148610433,239.72721362452032L386.15173263549804,243.26713208586582L387.99055040995285,240.84040727692053L389.82936818440754,240.66215326135674L391.6681859588623,237.79106511460796L393.50700373331705,240.47550883406683L395.3458215077718,238.91332491659142L397.18463928222656,241.47166844371014L399.0234570566813,238.48484141843085L400.86227483113606,238.37536250032667L402.7010926055908,242.43625607902842L404.53991038004557,240.37359442586336L406.3787281545003,243.3051892665699L408.2175459289551,240.36658364559557L410.05636370340983,239.0582706869472L411.8951814778646,240.68456523361843L413.73399925231934,241.173086163336L415.5728170267741,239.41732212028708L417.41163480122884,237.24655179522824L419.25045257568365,240.8161933370398L421.0892703501383,239.7889685564641L422.92808812459305,239.84880889781277L424.76690589904786,243.6048977767059L426.6057236735026,239.41571724287638L428.44454144795736,246.0953859606705L430.2833592224121,235.06096216355243L432.12217699686687,238.32239216052557L433.9609947713217,241.24690113898012L435.7998125457763,237.2378516703176L437.6386303202311,240.3475222068755L439.4774480946858,237.20914219663726L441.31626586914064,237.14525681339381L443.1550836435954,238.0635845612423L444.99390141805014,238.39899455483047L446.8327191925049,239.2824279505562L448.67153696695965,241.70383132387667L450.51035474141435,242.62340730971118L452.3491725158691,236.65212772690052L454.18799029032385,241.39061744184585L456.02680806477866,239.66808656202087L457.8656258392334,233.4249820409289L459.70444361368817,242.36550069423743L461.5432613881429,242.54074204518815L463.3820791625977,240.29192399763002L465.2208969370524,239.88526120110606L467.0597147115071,237.292211026825L468.8985324859619,239.83005717227724L470.7373502604167,240.1124780555682L472.57616803487144,236.4399366545116L474.4149858093262,241.53771243399729L476.25380358378095,244.0069148754621L478.09262135823565,241.4070979373616L479.9314391326904,242.51209826824405L481.77025690714515,239.64036253938218L483.6090746815999,237.32970509264803L485.4478924560547,239.26590991404848L487.28671023050947,244.48197735952502L489.1255280049642,245.5008304988706L490.964345779419,239.52980431775626L492.8031635538737,241.07050540252345L494.6419813283284,239.80410696151364L496.4807991027832,240.30170342606252L498.31961687723793,239.80112245264462L500.1584346516927,240.08765407456647L501.9972524261475,242.88141716291318L503.83607020060225,240.23319111554724L505.674887975057,242.5059790865377L507.5137057495117,239.03342793544948L509.35252352396645,235.07556560946495L511.1913412984212,238.48939326371845L513.030159072876,237.08654270180713L514.8689768473307,242.17922229162014L516.7077946217855,238.08498292671828L518.5466123962402,241.24377585139086L520.385430170695,238.37328836051523L522.2242479451497,242.3821595094655L524.0630657196044,238.1336360524321L525.9018834940592,238.2824485449704L527.740701268514,239.13933107405953L529.5795190429687,241.72670317329107L531.4183368174236,240.7899991098277L533.2571545918782,241.72449764000743L535.095972366333,231.77946650632148L536.9347901407878,237.9937677012529L538.7736079152425,238.21428348863176L540.6124256896973,240.82325104354763L542.4512434641521,240.05071373837634L544.2900612386068,240.90702376733657L546.1288790130616,239.83229086130504L547.9676967875163,239.71623288434185L549.806514561971,243.13861988478575L551.6453323364258,237.532435835037L553.4841501108805,239.39205703262857L555.3229678853353,238.55633823781503L557.1617856597901,240.79088132314124L559.0006034342448,241.26558716777961L560.8394212086996,239.49942426992916L562.6782389831543,241.2464037208353L564.517056757609,243.93229276848854L566.3558745320638,239.5028498854549L568.1946923065185,239.07998815085574L570.0335100809733,240.0131164348251L571.872327855428,239.44684811054472L573.7111456298828,235.93440027014137L575.5499634043376,243.54587395193462L577.3887811787923,239.3877304332933L579.227598953247,238.6401766583401L581.0664167277018,235.52765300638526L582.9052345021565,239.41430945567402L584.7440522766113,240.11845645855428L586.582870051066,237.81372110331813L588.4216878255208,240.10029600364373L590.2605055999757,244.06533804436035L592.0993233744302,237.21449178800626L593.938141148885,245.51002804192603L595.7769589233399,238.53280942103947L597.6157766977946,240.81642796824013L599.4545944722494,239.97615732813895L601.2934122467041,243.2257806831083L603.1322300211589,237.0153837513514L604.9710477956137,240.25625066992203L606.8098655700683,244.6848770363783L608.6486833445231,238.99768891100533L610.4875011189779,239.2302835125805L612.3263188934326,241.6858961149185L614.1651366678874,241.2465538848036L616.0039544423421,237.01696047301806L617.8427722167969,239.84962541439015L619.6815899912517,238.05652685473444L621.5204077657063,239.93113629340723L623.3592255401611,242.03082274999457L625.1980433146159,236.42264902766652L627.0368610890706,240.86481830700959L628.8756788635254,241.802761223211L630.7144966379801,237.50845652635672L632.5533144124349,238.96736517466633L634.3921321868897,238.93826152056943L636.2309499613443,241.6254551176968L638.0697677357991,237.50217779543416L639.9085855102539,239.8083397083687L641.7474032847086,238.6996603602641L643.5862210591634,242.28822256207548L645.4250388336181,234.3909680782016L647.263856608073,235.61752614138442L649.1026743825278,239.07035888639155L650.9414921569823,239.78575880164271L652.7803099314372,238.82492526553077L654.619127705892,238.3560101189181L656.4579454803467,243.82346143249748L658.2967632548015,242.82265612508635L660.1355810292562,239.00674567534054L661.974398803711,241.46953799241058L663.8132165781657,240.69760134311235L665.6520343526204,237.83920205168099L667.4908521270752,240.80141157141495L669.32966990153,243.10631586111538L671.1684876759847,239.60324388347982L673.0073054504395,240.6272025977459L674.8461232248942,243.52553611948449L676.684940999349,239.32880984625027L678.5237587738037,240.28929612818558L680.3625765482584,239.38211805497986L682.2013943227132,240.33137019504036L684.0402120971679,239.42299081008866L685.8790298716227,239.00978649569765L687.7178476460775,238.5065401118433L689.5566654205322,242.42246914969326L691.395483194987,240.37042221203404L693.2343009694417,243.54522636982153L695.0731187438964,239.26187425740164L696.9119365183512,241.07851101908093L698.7507542928059,239.96086875912124L700.5895720672607,236.18497700691478L702.4283898417156,241.189134937443L704.2672076161703,240.20574865034914L706.1060253906251,244.13339986297075L707.9448431650798,241.522123537043L709.7836609395345,239.3442016529961L711.6224787139893,237.26713364412686L713.461296488444,238.58136869427312L715.3001142628988,238.34996601919596L717.1389320373536,242.07756128511318L718.9777498118083,240.29804317933636L720.816567586263,236.5591293043121L722.6553853607178,240.39172672502986L724.4942031351725,245.23957334985522L726.3330209096273,237.59122502860788L728.171838684082,241.58108166507816L730.0106564585368,238.73263073654354L731.8494742329916,240.28148760183652L733.6882920074463,245.3687988297845L735.527109781901,238.76696197378533L737.3659275563558,237.91462190473578L739.2047453308105,241.299730700061L741.0435631052653,235.04179748710413L742.88238087972,241.35492534364187L744.7211986541748,240.304969492372L746.5600164286296,236.43498124355926L748.3988342030843,238.12287117295807L750.237651977539,237.07527101894013L752.0764697519938,241.492353530337L753.9152875264485,237.60375433470895L755.7541053009033,242.21115090536983L757.592923075358,240.40544795762895L759.4317408498129,240.2040029942182L761.2705586242677,239.57592342650582L763.1093763987224,243.0593520800444L764.9481941731771,239.45218831666577L766.7870119476319,238.75416988073977L768.6258297220866,237.700675790968L770.4646474965414,239.90571165653247L772.3034652709961,240.08771038605457L774.1422830454509,236.7076883951539L775.9811008199057,240.7274745875466L777.8199185943603,238.46418448754804L779.6587363688151,241.0512750293391" fill="none"></path></g></g></g></g></g></g><g transform="translate(51, 377)" clip-path="url(#clip_1)"><clipPath id="clip_1"><rect width="827" height="22"></rect></clipPath><g><g><line x1="0" y1="0" x2="0" y2="5" style="visibility: inherit;" fill="rgb(0, 0, 0)" stroke="rgb(204, 204, 204)" stroke-width="1px"></line><line x1="91.94088872273763" y1="0" x2="91.94088872273763" y2="5" style="visibility: inherit;" fill="rgb(0, 0, 0)" stroke="rgb(204, 204, 204)" stroke-width="1px"></line><line x1="183.88177744547525" y1="0" x2="183.88177744547525" y2="5" style="visibility: inherit;" fill="rgb(0, 0, 0)" stroke="rgb(204, 204, 204)" stroke-width="1px"></line><line x1="275.8226661682129" y1="0" x2="275.8226661682129" y2="5" style="visibility: inherit;" fill="rgb(0, 0, 0)" stroke="rgb(204, 204, 204)" stroke-width="1px"></line><line x1="367.7635548909505" y1="0" x2="367.7635548909505" y2="5" style="visibility: inherit;" fill="rgb(0, 0, 0)" stroke="rgb(204, 204, 204)" stroke-width="1px"></line><line x1="459.70444361368817" y1="0" x2="459.70444361368817" y2="5" style="visibility: inherit;" fill="rgb(0, 0, 0)" stroke="rgb(204, 204, 204)" stroke-width="1px"></line><line x1="551.6453323364258" y1="0" x2="551.6453323364258" y2="5" style="visibility: inherit;" fill="rgb(0, 0, 0)" stroke="rgb(204, 204, 204)" stroke-width="1px"></line><line x1="643.5862210591634" y1="0" x2="643.5862210591634" y2="5" style="visibility: inherit;" fill="rgb(0, 0, 0)" stroke="rgb(204, 204, 204)" stroke-width="1px"></line><line x1="735.527109781901" y1="0" x2="735.527109781901" y2="5" style="visibility: inherit;" fill="rgb(0, 0, 0)" stroke="rgb(204, 204, 204)" stroke-width="1px"></line><line x1="827.4679985046387" y1="0" x2="827.4679985046387" y2="5" style="visibility: inherit;" fill="rgb(0, 0, 0)" stroke="rgb(204, 204, 204)" stroke-width="1px"></line></g><g transform="translate(0, 8)"><text style="text-anchor: middle; visibility: hidden; font-family: Roboto, sans-serif; font-size: 12px; font-weight: 200;" x="0" y="0" dx="0em" dy="0.95em" fill="rgb(50, 49, 63)" stroke="none" stroke-width="1px">-5k</text><text style="text-anchor: middle; visibility: inherit; font-family: Roboto, sans-serif; font-size: 12px; font-weight: 200;" x="91.94088872273763" y="0" dx="0em" dy="0.95em" fill="rgb(50, 49, 63)" stroke="none" stroke-width="1px">0</text><text style="text-anchor: middle; visibility: inherit; font-family: Roboto, sans-serif; font-size: 12px; font-weight: 200;" x="183.88177744547525" y="0" dx="0em" dy="0.95em" fill="rgb(50, 49, 63)" stroke="none" stroke-width="1px">5k</text><text style="text-anchor: middle; visibility: inherit; font-family: Roboto, sans-serif; font-size: 12px; font-weight: 200;" x="275.8226661682129" y="0" dx="0em" dy="0.95em" fill="rgb(50, 49, 63)" stroke="none" stroke-width="1px">10k</text><text style="text-anchor: middle; visibility: inherit; font-family: Roboto, sans-serif; font-size: 12px; font-weight: 200;" x="367.7635548909505" y="0" dx="0em" dy="0.95em" fill="rgb(50, 49, 63)" stroke="none" stroke-width="1px">15k</text><text style="text-anchor: middle; visibility: inherit; font-family: Roboto, sans-serif; font-size: 12px; font-weight: 200;" x="459.70444361368817" y="0" dx="0em" dy="0.95em" fill="rgb(50, 49, 63)" stroke="none" stroke-width="1px">20k</text><text style="text-anchor: middle; visibility: inherit; font-family: Roboto, sans-serif; font-size: 12px; font-weight: 200;" x="551.6453323364258" y="0" dx="0em" dy="0.95em" fill="rgb(50, 49, 63)" stroke="none" stroke-width="1px">25k</text><text style="text-anchor: middle; visibility: inherit; font-family: Roboto, sans-serif; font-size: 12px; font-weight: 200;" x="643.5862210591634" y="0" dx="0em" dy="0.95em" fill="rgb(50, 49, 63)" stroke="none" stroke-width="1px">30k</text><text style="text-anchor: middle; visibility: inherit; font-family: Roboto, sans-serif; font-size: 12px; font-weight: 200;" x="735.527109781901" y="0" dx="0em" dy="0.95em" fill="rgb(50, 49, 63)" stroke="none" stroke-width="1px">35k</text><text style="text-anchor: middle; visibility: hidden; font-family: Roboto, sans-serif; font-size: 12px; font-weight: 200;" x="827.4679985046387" y="0" dx="0em" dy="0.95em" fill="rgb(50, 49, 63)" stroke="none" stroke-width="1px">40k</text></g><line x1="0" y1="0" x2="827.4679985046387" y2="0" fill="rgb(0, 0, 0)" stroke="rgb(204, 204, 204)" stroke-width="1px"></line></g></g></g></g></svg>